<svg width="33" height="32" viewBox="0 0 33 32" fill="none" xmlns="http://www.w3.org/2000/svg">
<circle cx="16.3784" cy="16" r="16" fill="#38CB89"/>
<path fill-rule="evenodd" clip-rule="evenodd" d="M16.8178 10.7189H15.9375C15.8593 10.7189 15.8202 10.758 15.8202 10.8362V15.4427H11.4484C11.3702 15.4427 11.3311 15.4818 11.3311 15.5601V16.4403C11.3311 16.5185 11.3702 16.5577 11.4484 16.5577H15.8202V21.1642C15.8202 21.2424 15.8593 21.2815 15.9375 21.2815H16.8178C16.896 21.2815 16.9351 21.2424 16.9351 21.1642V16.5577H21.3069C21.3851 16.5577 21.4243 16.5185 21.4243 16.4403V15.5601C21.4243 15.4818 21.3851 15.4427 21.3069 15.4427H16.9351V10.8362C16.9351 10.758 16.896 10.7189 16.8178 10.7189Z" fill="white"/>
</svg>
