<svg width="44" height="35" viewBox="0 0 44 35" fill="none" xmlns="http://www.w3.org/2000/svg">
<path d="M37.0845 1.63971C37.8379 0.896517 38.8617 0.475007 39.9322 0.467301C41.0027 0.459595 42.0328 0.866321 42.7974 1.59859C43.5619 2.33086 43.9988 3.32913 44.0125 4.37522C44.0262 5.42132 43.6156 6.43019 42.8705 7.18134L21.3105 33.5215C20.9401 33.9112 20.4931 34.224 19.9963 34.4412C19.4995 34.6584 18.963 34.7755 18.4188 34.7855C17.8747 34.7955 17.334 34.6983 16.8292 34.4996C16.3243 34.3009 15.8656 34.0048 15.4805 33.629L1.18596 19.6648C0.426344 18.9221 -0.000257746 17.9149 1.16832e-07 16.8648C0.000257979 15.8147 0.427354 14.8077 1.18733 14.0654C1.94731 13.323 2.97792 12.9061 4.05243 12.9064C5.12694 12.9066 6.15734 13.324 6.91696 14.0667L18.2222 25.1177L36.9772 1.76334C37.0113 1.72084 37.048 1.68045 37.0872 1.6424L37.0845 1.63971Z" fill="#38CB89"/>
</svg>
