<svg width="193" height="223" viewBox="0 0 193 223" fill="none" xmlns="http://www.w3.org/2000/svg">
<path d="M111.358 143.445L111.358 148.766H98.0899V143.445H111.358Z" fill="#B600A0"/>
<path d="M23.3937 114.909C23.1971 114.909 23.0155 114.788 22.8794 114.561C22.4255 113.775 21.8053 110.646 20.9883 105.022C17.5541 104.221 15.6328 103.616 15.1336 103.163C14.9369 102.982 14.831 102.679 14.8915 102.392C14.9823 101.908 15.073 101.349 20.8522 99.8523C22.5314 89.0737 23.1819 88.8923 23.5753 88.7865C23.6207 88.7714 23.6661 88.7714 23.6963 88.7714C23.893 88.7714 24.0745 88.8923 24.2107 89.1191C24.6948 89.9505 25.3756 93.5786 26.2682 99.8674C32.017 101.364 32.1078 101.908 32.1986 102.407C32.244 102.694 32.1532 102.982 31.9565 103.178C31.4573 103.632 29.5208 104.251 26.0412 105.053C24.4981 114.652 23.9232 114.803 23.5148 114.924C23.4694 114.909 23.424 114.909 23.3937 114.909Z" fill="#FFE700"/>
<path d="M148.461 133.171C148.31 133.171 148.159 133.095 148.053 132.944C147.705 132.445 147.221 130.48 146.57 126.912C143.878 126.413 142.38 126.02 141.986 125.733C141.835 125.612 141.76 125.431 141.79 125.249C141.85 124.947 141.926 124.584 146.465 123.647C147.781 116.829 148.295 116.723 148.598 116.647C148.628 116.647 148.658 116.632 148.704 116.632C148.855 116.632 149.006 116.708 149.112 116.859C149.49 117.388 150.035 119.671 150.731 123.647C155.239 124.584 155.315 124.947 155.375 125.249C155.421 125.431 155.345 125.612 155.179 125.733C154.785 126.02 153.272 126.413 150.549 126.912C149.339 132.974 148.885 133.08 148.567 133.14C148.522 133.155 148.492 133.171 148.461 133.171Z" fill="#B600A0"/>
<path d="M102.713 29.0128C102.607 29.0128 102.516 28.9675 102.456 28.8768C102.229 28.5593 101.911 27.2744 101.502 24.9765C99.7626 24.644 98.7944 24.4021 98.5372 24.2207C98.4313 24.1451 98.3859 24.0242 98.4162 23.9032C98.4616 23.7067 98.507 23.4799 101.442 22.8601C102.289 18.461 102.622 18.3854 102.819 18.3401C102.834 18.3401 102.864 18.3401 102.879 18.3401C102.985 18.3401 103.076 18.3854 103.136 18.4761C103.378 18.8238 103.726 20.2902 104.18 22.8601C107.085 23.4648 107.145 23.6916 107.176 23.8881C107.206 24.009 107.16 24.13 107.055 24.2056C106.797 24.387 105.829 24.644 104.059 24.9765C103.272 28.8919 102.985 28.9524 102.773 28.9977C102.758 28.9977 102.728 29.0128 102.713 29.0128Z" fill="#00DBC5"/>
<path d="M21.7236 152.655L25.4891 148.892L34.8707 158.267L31.1053 162.029L21.7236 152.655Z" fill="#00DBC5"/>
<path d="M179.813 43.2434L176.488 46.241L169.029 37.9809L172.354 34.9833L179.813 43.2434Z" fill="#FFE700"/>
<path d="M176.039 200.772L178.468 204.532L169.112 210.566L166.684 206.806L176.039 200.772Z" fill="#FFE700"/>
<path d="M6.02242 196.495L9.90042 198.733L4.33311 208.368L0.455114 206.131L6.02242 196.495Z" fill="#FFE700"/>
<path d="M18.3337 54.2465L14.5683 58.0091L5.18664 48.6345L8.95212 44.8719L18.3337 54.2465Z" fill="#B600A0"/>
<path d="M46.3303 195.14L49.2182 199.611L38.0706 206.801L35.1827 202.33L46.3303 195.14Z" fill="#B600A0"/>
<path d="M190.035 151.323L192.923 155.794L181.776 162.984L178.888 158.513L190.035 151.323Z" fill="#B600A0"/>
<path d="M177.148 112.611L173.764 108.502L184.01 100.078L187.393 104.187L177.148 112.611Z" fill="#00DBC5"/>
<path d="M55.2749 64.9933L58.072 68.0908L50.3673 75.038L47.5701 71.9404L55.2749 64.9933Z" fill="#F73200"/>
<path d="M96.571 205.581L98.1151 209.458L88.4728 213.293L86.9287 209.416L96.571 205.581Z" fill="#F73200"/>
<path d="M148.301 3.93189L151.098 7.02945L143.393 13.9766L140.596 10.879L148.301 3.93189Z" fill="#F73200"/>
<path d="M146.352 165.121L148.852 161.779L157.164 167.989L154.663 171.33L146.352 165.121Z" fill="#F73200"/>
<path fill-rule="evenodd" clip-rule="evenodd" d="M78.2276 38.3916L56.7839 34.0795L57.6446 9.65942L26.3398 0.0820312L25.3734 27.7551H25.3129L25.1921 32.4L78.137 42.2044L78.2276 38.3916Z" fill="#5078FF"/>
<path fill-rule="evenodd" clip-rule="evenodd" d="M55.8626 12.4132C55.621 18.8284 55.3643 25.2436 55.1226 31.6587C53.3709 31.3107 51.6192 30.9628 49.8674 30.6148C48.5385 30.3424 47.1945 30.0852 45.8656 29.8129C44.6726 29.5708 43.4796 29.3438 42.3017 29.1017C39.3721 28.5268 36.4424 27.9367 33.5279 27.3618C31.8064 27.0138 30.0848 26.6809 28.3633 26.3329C28.5596 18.9645 28.7408 11.581 28.9371 4.21265C32.1084 5.18098 35.2796 6.13418 38.4358 7.10251C41.0936 7.9044 43.7363 8.72143 46.3941 9.52333C47.6475 9.90158 48.8858 10.2798 50.1392 10.6581C51.0151 10.9304 51.891 11.1876 52.7819 11.46C53.7937 11.7777 54.8357 12.0955 55.8626 12.4132Z" fill="#121212"/>
<path d="M45.1861 14.5162C43.3739 18.7375 40.6255 19.721 40.112 22.7167C39.8704 24.0936 40.0667 26.1967 42.2866 29.1168C39.357 28.5419 36.4273 27.9518 33.5128 27.3768C33.2259 26.1664 33.09 25.0468 33.0749 24.0482C33.0749 24.0482 33.0598 22.6714 33.3165 21.355C34.1018 17.2094 37.6203 15.4694 38.4962 11.2632C38.6774 10.3857 38.8284 8.97857 38.4358 7.13269C41.0936 7.93459 43.7363 8.75162 46.3941 9.55351C46.3035 10.7185 46.0317 12.5342 45.1861 14.5162Z" fill="white"/>
<path d="M47.9195 23.3674C47.3758 25.2435 47.8138 27.6039 49.8675 30.6148C48.5386 30.3424 47.1946 30.0852 45.8657 29.8129C44.1291 25.7731 44.416 23.2312 45.2163 21.5669C46.364 19.2066 48.5235 18.6468 49.6712 15.7418C50.3508 14.0321 50.381 12.2619 50.1242 10.6581C51.0001 10.9304 51.876 11.1876 52.767 11.46C53.0086 14.3347 52.4498 16.5286 51.5136 18.2232C50.1846 20.6289 48.5386 21.2189 47.9195 23.3674Z" fill="white"/>
<path d="M135.099 58.8324C133.528 56.0031 135.053 52.9317 137.56 51.2976C140.656 49.2853 144.477 49.6635 147.905 48.7104C149.43 48.2867 150.985 47.5453 151.906 46.1987C152.42 45.4422 152.722 44.5949 152.843 43.7023H154.096V45.8659C153.235 47.8782 151.514 49.3609 149.294 50.1628C145.836 51.4186 141.758 50.7681 138.557 52.7955C137.334 53.5671 136.216 54.8381 136.231 56.3662C136.246 57.5464 137.001 59.014 138.285 59.1804C139.433 59.3317 139.433 61.1473 138.285 60.996C136.926 60.8296 135.778 60.0731 135.099 58.8324Z" fill="#F73200"/>
<path d="M124.181 63.5379C120.677 62.9932 117.415 60.7388 114.999 58.2423C113.957 57.1681 112.961 55.988 111.647 55.2314V53.2343C113.7 54.0967 115.301 56.0485 116.917 57.6069C118.276 58.9232 119.832 59.9823 121.538 60.7842C123.169 61.5558 125.313 62.3124 127.065 61.4953C128.439 60.8599 129.164 59.4376 128.439 58.0305C127.73 56.6839 126.431 55.7307 125.479 54.5506C123.411 51.9785 123.063 48.4834 124.045 45.3968C124.226 44.8068 124.468 44.247 124.739 43.7023H126.808C125.479 45.9264 124.906 48.6347 125.676 51.1614C126.144 52.6744 127.141 53.7336 128.198 54.8532C129.164 55.8669 130.206 57.0017 130.478 58.4239C130.78 59.9521 130.161 61.4348 128.968 62.4183C127.624 63.5379 125.872 63.8102 124.181 63.5379Z" fill="#F73200"/>
<path d="M146.244 74.8402H144.129C143.45 73.7055 142.8 72.6161 141.834 71.6478C139.463 69.2572 136.05 67.9106 132.713 68.8335C129.647 69.6808 128.077 72.4497 126.28 74.8402H123.969C123.999 74.81 124.03 74.7646 124.06 74.7343C125.902 72.5858 127.201 69.9683 129.572 68.3191C132.32 66.3976 136.05 66.3068 139.07 67.5929C142.091 68.8789 144.311 71.3452 145.866 74.1745C145.972 74.3561 146.093 74.5981 146.244 74.8402Z" fill="#F73200"/>
<path d="M154.111 70.2708V72.5554C153.251 73.2817 152.45 74.0836 151.605 74.8401H148.72C149.007 74.6434 149.264 74.4315 149.49 74.2651C150.849 73.2211 152.012 71.9653 153.341 70.876C153.598 70.6641 153.855 70.4674 154.111 70.2708Z" fill="#F73200"/>
<path d="M163.112 64.6728C162.961 65.1116 162.433 65.4293 161.874 65.3083L159.881 64.9905L159.684 64.9603L156.966 64.5215L156.317 64.4156L154.625 64.1433L152.285 63.765H152.239L149.415 63.3111L149.34 63.296C148.902 62.6454 148.494 62.1915 147.936 62.1763C147.452 62.1763 146.939 62.4638 146.712 62.8723C144.945 62.5848 143.179 62.2974 141.427 62.025C140.793 61.7527 140.158 61.4955 139.524 61.2231C138.86 60.9357 138.195 60.6633 137.531 60.3758C138.225 60.3305 138.935 60.2699 139.63 60.2245C140.34 60.1792 141.034 60.1186 141.744 60.0732L145.867 60.739C146.335 61.5409 147.951 61.5257 149.446 61.3139L150.412 61.4652L153.961 62.0402L156.241 62.4033L156.302 62.4184L156.392 62.4335L158.839 62.8269L159.08 62.8572L159.654 62.948L162.251 63.3716C162.886 63.4473 163.278 64.1433 163.112 64.6728Z" fill="black"/>
<path d="M139.629 60.5109C139.629 60.7529 139.584 60.995 139.493 61.2068C138.829 60.9194 138.164 60.647 137.5 60.3596C138.194 60.3142 138.904 60.2536 139.599 60.2083C139.629 60.299 139.629 60.4049 139.629 60.5109Z" fill="white"/>
<path fill-rule="evenodd" clip-rule="evenodd" d="M133.287 189.315C129.587 193.385 126.959 195.231 125.343 196.154C125.026 196.335 121.885 198.09 121.825 198V197.984C121.357 196.88 98.4331 128.507 97.5421 125.768C93.0117 125.677 87.6206 125.224 81.6254 124.059C75.3584 122.833 69.9824 121.123 65.6181 119.414C67.5058 120.669 70.2089 122.757 72.6251 125.995C77.6991 132.789 77.4877 139.219 79.4961 146.678C80.4928 150.4 82.2597 155.166 85.6574 160.522C86.7296 162.232 87.9679 163.987 89.4025 165.803C89.6593 166.136 89.916 166.453 90.1878 166.786C89.8254 166.907 89.4629 167.043 89.1005 167.164C88.4361 167.391 87.7716 167.633 87.1071 167.86C84.4946 168.783 81.8821 169.691 79.2847 170.614C78.288 170.962 77.2914 171.31 76.2947 171.658C76.2947 171.658 76.2947 171.658 76.2947 171.673C75.5849 170.72 74.845 169.691 74.0597 168.602C71.7643 165.364 69.182 161.491 66.5091 157.073C57.3577 141.836 42.1357 116.463 49.943 106.039C54.3828 100.108 64.7875 100.985 81.6103 102.407C86.5031 102.816 90.6408 103.482 92.4832 103.799C101.816 105.403 109.351 107.763 114.637 109.685C114.637 109.685 118.789 120.594 120.269 127.856C121.719 134.967 122.172 141.322 122.187 146.466C125.359 149.371 127.035 152.155 127.926 153.956C131.731 161.612 129.557 167.543 131.49 180.524C132.079 184.428 132.834 187.545 133.287 189.315Z" fill="#FF6334"/>
<path fill-rule="evenodd" clip-rule="evenodd" d="M116.841 66.0646C116.69 67.6987 116.494 69.9379 116.298 72.0562C113.504 70.9214 110.62 70.1951 107.766 69.7564L108.113 67.3809C105.938 67.0027 104.096 66.0495 103.266 64.6424C101.921 62.3577 103.311 58.9686 104.851 56.7898L100.306 52.3567L107.131 54.3387C108.521 53.1889 110.288 52.16 112.115 51.812C112.251 52.508 112.764 53.3704 113.323 53.9C114.607 55.1558 116.313 54.9893 116.555 54.9742C115.92 55.6853 114.093 57.9246 114.244 60.996C114.304 62.6452 115.029 65.5653 116.841 66.0646Z" fill="#FF8F6D"/>
<path d="M120.632 54.0817C118.246 50.7379 113.066 49.8301 112.221 50.98C112.07 51.1918 112.039 51.4793 112.1 51.8121C112.236 52.5081 112.749 53.3705 113.308 53.9001C114.591 55.1559 116.298 54.9895 116.539 54.9743C115.905 55.6854 114.078 57.9247 114.229 60.9961C114.32 62.6453 115.029 65.5806 116.842 66.0647C116.857 66.0647 116.872 66.0647 116.872 66.0799C117.853 66.3219 118.774 65.7621 119.031 65.6108C121.855 63.8103 123.305 57.8339 120.632 54.0817Z" fill="url(#paint0_linear_492_425)"/>
<path d="M106.18 63.0538C104.474 63.0538 103.311 62.0401 103.296 62.025L103.99 61.2382L103.643 61.6316L103.99 61.2382C104.081 61.3139 106.24 63.1446 108.913 60.8297L109.608 61.6316C108.355 62.721 107.177 63.0538 106.18 63.0538Z" fill="black"/>
<path d="M108.536 56.109C108.928 56.109 109.246 55.7906 109.246 55.3979C109.246 55.0051 108.928 54.6868 108.536 54.6868C108.144 54.6868 107.826 55.0051 107.826 55.3979C107.826 55.7906 108.144 56.109 108.536 56.109Z" fill="black"/>
<path d="M110.142 52.1002L111.164 51.83L112.004 55.0192L110.982 55.2894L110.142 52.1002Z" fill="black"/>
<path fill-rule="evenodd" clip-rule="evenodd" d="M111.571 56.1848L116.766 58.9839L116.494 59.5134L111.435 56.79C111.028 57.8491 110.016 58.6207 108.808 58.6207C107.267 58.6207 106.014 57.3649 106.014 55.8217C106.014 54.2784 107.267 53.0226 108.808 53.0226C110.348 53.0226 111.601 54.2784 111.601 55.8217C111.601 55.9427 111.586 56.0637 111.571 56.1848L111.571 56.1848ZM106.602 55.8209C106.602 57.0313 107.584 58.0147 108.792 58.0147C110 58.0147 110.982 57.0313 110.982 55.8209C110.982 54.6104 110 53.627 108.792 53.627C107.584 53.627 106.602 54.6104 106.602 55.8209Z" fill="black"/>
<path fill-rule="evenodd" clip-rule="evenodd" d="M113.64 59.4225C116.237 58.0457 118.563 57.7128 119.469 58.5904C119.801 58.9081 119.847 59.2864 119.847 59.3923C119.983 60.9356 117.053 62.6755 114.38 62.842C113.851 62.8722 113.429 62.842 113.187 62.8117C113.353 61.6618 113.504 60.5422 113.64 59.4225Z" fill="#FF8F6D"/>
<path d="M96.5303 170.992L95.8659 171.718L94.9145 172.747L93.7064 174.033L92.755 175.062L92.7097 175.108L92.4077 175.44L91.411 176.515L90.7767 177.196L90.4445 177.528L89.2666 178.724L88.8589 179.147L73.4406 194.656L73.1687 194.928L72.6402 195.458C72.6402 195.458 72.6402 195.458 72.6251 195.458C72.5647 195.427 72.5043 195.382 72.4439 195.352C72.3986 195.321 72.3684 195.306 72.3231 195.276C72.2778 195.246 72.2174 195.2 72.1721 195.17C72.1267 195.14 72.0663 195.095 72.021 195.064C71.9757 195.034 71.9304 194.989 71.8851 194.943C71.8398 194.913 71.7945 194.868 71.7643 194.837C71.7643 194.837 71.7643 194.837 71.7492 194.822C71.7039 194.777 71.6586 194.747 71.6133 194.701C71.568 194.656 71.5227 194.61 71.4925 194.565C71.4623 194.52 71.417 194.489 71.3868 194.444C71.3566 194.414 71.3264 194.368 71.2962 194.338C71.266 194.308 71.2358 194.277 71.2207 194.232C71.1603 194.156 71.0999 194.081 71.0546 194.005C70.8884 193.763 70.7374 193.506 70.6317 193.249C70.4656 192.84 70.3448 192.416 70.3297 191.978C70.3146 191.675 70.3448 191.357 70.4203 191.04C70.6015 190.434 70.7827 189.829 70.964 189.224L71.3566 187.923C71.5831 187.181 71.8096 186.44 72.0361 185.699C72.0663 185.608 72.0965 185.517 72.1116 185.426C73.501 180.842 74.8903 176.257 76.2796 171.673V171.658C77.2763 171.31 78.2729 170.962 79.2696 170.614C81.8821 169.706 84.4946 168.783 87.0921 167.86C87.7565 167.633 88.421 167.391 89.0854 167.164C89.4478 167.043 89.8103 166.907 90.1727 166.786C90.1878 166.786 90.2029 166.801 90.218 166.816C90.2331 166.831 90.2633 166.847 90.2935 166.877C90.369 166.922 90.4596 166.983 90.5804 167.058C90.5955 167.073 90.6257 167.089 90.6408 167.104L90.6559 167.119C90.671 167.134 90.671 167.134 90.6861 167.134C90.7012 167.134 90.7163 167.149 90.7163 167.164C90.7465 167.179 90.7616 167.195 90.7918 167.21C90.807 167.21 90.807 167.225 90.8221 167.225C90.8523 167.255 90.8976 167.27 90.9278 167.3C90.958 167.331 91.0033 167.346 91.0335 167.376C91.0486 167.376 91.0637 167.391 91.0788 167.406C91.109 167.421 91.1241 167.437 91.1543 167.452C91.1845 167.482 91.2298 167.497 91.26 167.527C91.26 167.527 91.2751 167.527 91.2751 167.543C91.3204 167.573 91.3657 167.603 91.3959 167.633C91.4865 167.694 91.5771 167.754 91.6677 167.815C91.9395 167.996 92.2567 168.208 92.5738 168.42C92.9211 168.647 93.2836 168.889 93.646 169.131C93.6762 169.161 93.7215 169.177 93.7517 169.207C93.8272 169.267 93.9178 169.313 93.9933 169.373C94.0084 169.388 94.0235 169.388 94.0386 169.404C94.1745 169.494 94.3104 169.585 94.4463 169.676C94.7182 169.857 94.99 170.039 95.2618 170.221C95.4279 170.326 95.594 170.448 95.7601 170.553C95.8357 170.614 95.9263 170.659 96.0018 170.72C96.0169 170.735 96.032 170.75 96.0622 170.765C96.1377 170.826 96.2283 170.871 96.3038 170.932C96.4095 170.917 96.4699 170.962 96.5303 170.992Z" fill="#4D00FF"/>
<path d="M96.5302 170.992L95.8658 171.719L94.9144 172.747L93.7063 174.033L92.7549 175.062L92.7096 175.108L92.4076 175.441L91.4109 176.515L90.7766 177.196L90.4444 177.529L89.2665 178.724L88.8588 179.147L73.4404 194.656L73.1686 194.928L72.6401 195.458C72.6401 195.458 72.6401 195.458 72.625 195.458C72.5646 195.428 72.5042 195.382 72.4438 195.352C72.3985 195.322 72.3683 195.306 72.323 195.276C72.2776 195.246 72.2172 195.201 72.1719 195.17C72.1266 195.14 72.0662 195.095 72.0209 195.064C71.9756 195.034 71.9303 194.989 71.885 194.943C71.8397 194.913 71.7944 194.868 71.7642 194.837C71.7642 194.837 71.7642 194.837 71.7491 194.822C71.7038 194.777 71.6585 194.747 71.6132 194.701C71.5679 194.656 71.5226 194.61 71.4924 194.565C71.4622 194.52 71.4169 194.489 71.3867 194.444C71.3565 194.414 71.3263 194.368 71.2961 194.338C71.2659 194.308 71.2357 194.278 71.2206 194.232C71.1602 194.157 71.0998 194.081 71.0544 194.005C70.8883 193.763 70.7373 193.506 70.6316 193.249C70.4655 192.84 70.3447 192.417 70.3296 191.978C70.7373 192.053 71.1753 192.129 71.6132 192.159C75.1469 192.371 77.4272 188.528 85.7328 180.086C86.4728 179.344 87.0617 178.739 87.4242 178.391C86.9711 177.181 86.4577 175.456 86.3067 173.337C86.1708 171.461 86.3369 169.858 86.5483 168.662C86.5483 168.662 86.5483 168.662 86.5483 168.647C87.0013 168.435 87.4544 168.223 87.9074 167.997C88.2698 167.83 88.6172 167.649 88.9796 167.482C89.3722 167.24 89.78 167.013 90.1726 166.771C90.1877 166.786 90.2028 166.786 90.2179 166.801C90.233 166.816 90.2632 166.832 90.2934 166.862C90.3689 166.907 90.4595 166.968 90.5803 167.043C90.5954 167.058 90.6256 167.074 90.6407 167.089L90.6558 167.104C90.6709 167.119 90.7011 167.134 90.7313 167.149C90.7615 167.164 90.7766 167.18 90.8068 167.195C90.8219 167.195 90.8219 167.21 90.837 167.21C90.8672 167.24 90.9125 167.255 90.9428 167.285C90.973 167.316 91.0183 167.331 91.0485 167.361C91.0636 167.376 91.0787 167.376 91.0938 167.391C91.124 167.406 91.1391 167.422 91.1693 167.437C91.1844 167.452 91.2146 167.467 91.2297 167.482C91.2448 167.497 91.275 167.512 91.2901 167.528C91.3354 167.558 91.3807 167.588 91.4109 167.618C91.5015 167.679 91.5921 167.739 91.6827 167.8C91.9545 167.981 92.2717 168.193 92.5888 168.405C92.9361 168.632 93.2985 168.874 93.661 169.116C93.6912 169.146 93.7365 169.162 93.7667 169.192C93.8422 169.252 93.9328 169.298 94.0083 169.358C94.0234 169.373 94.0385 169.373 94.0536 169.389C94.1895 169.479 94.3254 169.57 94.4613 169.661C94.7332 169.842 95.005 170.024 95.2768 170.206C95.4429 170.311 95.609 170.432 95.7751 170.538C95.8507 170.599 95.9413 170.644 96.0168 170.705C96.0319 170.72 96.047 170.735 96.0772 170.75C96.1527 170.811 96.2433 170.856 96.3188 170.917C96.4094 170.917 96.4698 170.962 96.5302 170.992Z" fill="white"/>
<path d="M96.5305 170.992L95.866 171.719L94.9146 172.747L93.7065 174.033L92.7552 175.062L92.7099 175.108L92.4078 175.441L91.4112 176.515L90.7769 177.196L90.4447 177.529L89.2668 178.724L88.8591 179.147C87.6359 175.97 87.6359 171.764 89.0252 167.497V167.482C89.0554 167.376 89.1007 167.27 89.1309 167.149C89.4933 167.028 89.8557 166.892 90.2182 166.771C90.2333 166.771 90.2484 166.786 90.2635 166.801C90.2786 166.816 90.3088 166.832 90.339 166.862C90.4145 166.907 90.5051 166.968 90.6259 167.043C90.641 167.058 90.6712 167.074 90.6863 167.089L90.7014 167.104C90.7165 167.119 90.7165 167.119 90.7316 167.119C90.7467 167.119 90.7618 167.134 90.7618 167.149C90.792 167.164 90.8071 167.18 90.8373 167.195C90.8524 167.195 90.8524 167.21 90.8675 167.21C90.8977 167.24 90.943 167.255 90.9732 167.285C91.0034 167.316 91.0487 167.331 91.0789 167.361C91.094 167.361 91.1091 167.376 91.1242 167.391C91.1544 167.406 91.1695 167.422 91.1997 167.437C91.2148 167.452 91.245 167.467 91.2601 167.482C91.2752 167.497 91.2903 167.497 91.3054 167.512C91.3054 167.512 91.3205 167.512 91.3205 167.528C91.3659 167.558 91.4112 167.588 91.4414 167.618C91.532 167.679 91.6226 167.739 91.7132 167.8C91.985 167.981 92.3021 168.193 92.6193 168.405C92.9666 168.632 93.329 168.874 93.6914 169.116C93.7216 169.146 93.7669 169.162 93.7971 169.192C93.8727 169.252 93.9633 169.298 94.0388 169.358C94.0539 169.373 94.069 169.373 94.0841 169.389C94.22 169.479 94.3559 169.57 94.4918 169.661C94.7636 169.842 95.0354 170.024 95.3073 170.206C95.4734 170.311 95.6395 170.432 95.8056 170.538C95.8811 170.599 95.9717 170.644 96.0472 170.705C96.0623 170.72 96.0774 170.735 96.1076 170.75C96.1831 170.811 96.2737 170.856 96.3493 170.917C96.4097 170.917 96.4701 170.962 96.5305 170.992Z" fill="#B600A0"/>
<path fill-rule="evenodd" clip-rule="evenodd" d="M99.3843 172.914C99.2333 173.065 99.0672 173.216 98.9011 173.368C98.5537 173.701 98.2215 174.033 97.8742 174.366C97.4514 174.79 97.0134 175.198 96.5906 175.607C96.2433 175.94 95.911 176.273 95.5637 176.606C95.0805 177.075 94.5972 177.544 94.114 178.013C93.7667 178.346 93.4344 178.678 93.0871 179.011C91.3203 180.706 89.5685 182.416 87.8017 184.11C85.4912 186.334 82.9844 188.392 80.8249 190.767C80.7343 190.873 80.6437 190.979 80.538 191.085C80.538 191.085 76.8986 195.201 74.6787 195.639C73.6065 195.851 72.8666 195.564 72.6552 195.458C72.6099 195.443 72.5947 195.427 72.5947 195.427C72.4588 195.367 72.2776 195.261 72.0662 195.11C71.9907 195.049 71.734 194.868 71.4471 194.55C71.296 194.399 71.145 194.202 71.0091 193.975C70.8883 193.793 70.7524 193.551 70.6316 193.234C71.2054 193.294 71.8699 193.294 72.625 193.188C76.5362 192.613 78.4087 189.345 83.9056 183.792C84.9928 182.703 86.654 181.069 88.8286 179.163C89.1457 178.512 89.4628 177.861 89.7799 177.211L90.3689 175.985C90.6558 175.41 90.9276 174.835 91.2146 174.26C91.4109 173.852 91.6072 173.443 91.8035 173.035C92.0602 172.52 92.3018 172.006 92.5435 171.492C92.7398 171.083 92.9361 170.675 93.1324 170.266C93.3136 169.888 93.4948 169.51 93.6912 169.131C94.0385 169.101 96.8171 168.95 98.448 170.977C99.0068 171.643 99.2635 172.369 99.3843 172.914Z" fill="#4ABA6B"/>
<path d="M98.9162 173.368C98.5688 173.701 98.2366 174.033 97.8893 174.366L94.8992 172.747L92.5435 171.476C92.7398 171.068 92.9361 170.659 93.1324 170.251L95.8506 171.718L98.9162 173.368Z" fill="#FFE323"/>
<path d="M96.6059 175.607C96.2586 175.94 95.9264 176.273 95.5791 176.605L92.74 175.077L91.1997 174.245C91.396 173.837 91.5923 173.428 91.7887 173.02L93.6763 174.049L96.6059 175.607Z" fill="#FFE323"/>
<path d="M94.1291 178.013C93.7818 178.345 93.4496 178.678 93.1023 179.011L90.4142 177.559L89.7649 177.211L90.3538 175.985L91.3807 176.545L94.1291 178.013Z" fill="#FFE323"/>
<path d="M82.5465 179.163C83.6724 179.163 84.5851 178.248 84.5851 177.12C84.5851 175.992 83.6724 175.078 82.5465 175.078C81.4206 175.078 80.5078 175.992 80.5078 177.12C80.5078 178.248 81.4206 179.163 82.5465 179.163Z" fill="#F73200"/>
<path d="M80.8402 190.767C80.7496 190.873 80.659 190.979 80.5533 191.085C80.5533 191.085 76.9139 195.2 74.694 195.639C73.4104 195.896 72.595 195.427 72.595 195.427C72.459 195.367 72.2778 195.261 72.0664 195.11C71.9909 195.049 71.7342 194.868 71.4473 194.55C71.8852 194.52 72.3533 194.565 72.7913 194.731C73.35 194.958 73.4104 195.185 73.8182 195.261C75.0263 195.473 75.9927 193.718 77.3971 192.492C78.1522 191.857 79.2244 191.176 80.8402 190.767Z" fill="#F73200"/>
<path d="M90.3232 166.862C89.8701 167.074 89.4322 167.285 88.9943 167.497C88.1788 167.891 87.3784 168.269 86.563 168.647C86.4875 168.692 86.3969 168.723 86.3214 168.768C84.3582 169.706 82.3497 170.644 80.3564 171.582C79.2389 174.397 78.2724 177.271 77.5173 180.101C77.3059 180.887 77.1247 181.629 76.9435 182.34C76.0374 185.911 75.3881 188.498 73.2588 189.224C72.9115 189.345 72.549 189.391 72.1715 189.391C71.794 189.391 71.4013 189.33 70.9785 189.209L71.3711 187.908C71.9148 188.059 72.398 188.059 72.8209 187.923C74.2555 187.439 74.8293 185.169 75.6146 182.007C75.7958 181.281 75.977 180.539 76.1884 179.753C76.9888 176.787 78.0006 173.776 79.1785 170.826L79.2691 170.599V170.584L79.5107 170.463C81.5947 169.494 83.6786 168.496 85.7173 167.527C86.9405 166.952 88.1637 166.362 89.3869 165.772C89.6436 166.105 89.9003 166.423 90.1722 166.756C90.1873 166.756 90.2024 166.771 90.2175 166.786C90.2628 166.831 90.293 166.847 90.3232 166.862Z" fill="#FFE323"/>
<path d="M141.396 192.78L140.898 193.627L140.203 194.853L139.327 196.381L138.617 197.606L138.587 197.667L138.361 198.045L137.621 199.316L137.153 200.133L136.896 200.541L136.005 201.964L135.703 202.463L124.196 221.028L123.999 221.345L123.607 221.981C123.607 221.981 123.607 221.981 123.592 221.981C123.531 221.966 123.456 221.936 123.395 221.92C123.35 221.905 123.305 221.89 123.259 221.875C123.199 221.86 123.139 221.83 123.078 221.799C123.018 221.769 122.973 221.754 122.912 221.724C122.852 221.693 122.806 221.678 122.746 221.648C122.701 221.618 122.64 221.588 122.595 221.572C122.595 221.572 122.58 221.572 122.58 221.557C122.519 221.527 122.474 221.497 122.414 221.466C122.368 221.436 122.308 221.406 122.263 221.361C122.217 221.33 122.172 221.3 122.127 221.27C122.082 221.24 122.051 221.209 122.021 221.194C121.991 221.164 121.961 221.149 121.915 221.118C121.84 221.058 121.764 220.997 121.704 220.937C121.493 220.74 121.281 220.528 121.115 220.286C120.858 219.938 120.662 219.545 120.541 219.121C120.466 218.819 120.42 218.516 120.42 218.183C120.466 217.548 120.511 216.927 120.541 216.292L120.632 214.93C120.677 214.159 120.738 213.387 120.783 212.615C120.783 212.525 120.798 212.434 120.798 212.343C121.13 207.562 121.447 202.781 121.764 198V197.984C122.655 197.425 123.546 196.85 124.437 196.29C126.778 194.807 129.119 193.324 131.444 191.857C132.033 191.479 132.637 191.1 133.226 190.722C133.558 190.51 133.876 190.314 134.208 190.102C134.223 190.102 134.238 190.117 134.253 190.117C134.283 190.132 134.314 190.132 134.344 190.147C134.419 190.177 134.525 190.223 134.661 190.268C134.676 190.283 134.706 190.283 134.736 190.298C134.751 190.298 134.751 190.298 134.767 190.314C134.782 190.314 134.797 190.329 134.797 190.329C134.812 190.329 134.827 190.344 134.842 190.344C134.872 190.359 134.887 190.359 134.918 190.374C134.933 190.374 134.933 190.374 134.948 190.389C134.978 190.404 135.023 190.419 135.069 190.435C135.114 190.45 135.144 190.465 135.189 190.48C135.205 190.48 135.22 190.495 135.235 190.495C135.265 190.51 135.295 190.51 135.325 190.525C135.356 190.54 135.401 190.556 135.446 190.571H135.461C135.507 190.586 135.552 190.601 135.612 190.631C135.718 190.662 135.809 190.707 135.914 190.752C136.231 190.873 136.564 190.994 136.941 191.131C137.319 191.282 137.726 191.433 138.149 191.584C138.195 191.6 138.225 191.615 138.27 191.63C138.361 191.66 138.451 191.705 138.542 191.736C138.557 191.736 138.572 191.751 138.587 191.751C138.738 191.811 138.889 191.872 139.04 191.917C139.342 192.038 139.644 192.144 139.946 192.265C140.128 192.341 140.324 192.401 140.505 192.477C140.596 192.507 140.686 192.553 140.777 192.583C140.792 192.598 140.822 192.598 140.837 192.613C140.928 192.644 141.018 192.689 141.109 192.719C141.26 192.734 141.336 192.765 141.396 192.78Z" fill="#4D00FF"/>
<path d="M141.396 192.78L140.897 193.627L140.203 194.852L139.327 196.381L138.617 197.606L138.587 197.667L138.36 198.045L137.62 199.316L137.152 200.133L136.896 200.541L136.005 201.964L135.703 202.463L124.196 221.028L123.999 221.345L123.607 221.981C123.607 221.981 123.607 221.981 123.591 221.981C123.531 221.966 123.456 221.935 123.395 221.92C123.35 221.905 123.305 221.89 123.259 221.875C123.199 221.86 123.138 221.829 123.078 221.799C123.018 221.769 122.972 221.754 122.912 221.724C122.852 221.693 122.806 221.678 122.746 221.648C122.7 221.618 122.64 221.587 122.595 221.572C122.595 221.572 122.58 221.572 122.58 221.557C122.519 221.527 122.474 221.497 122.414 221.466C122.368 221.436 122.308 221.406 122.263 221.36C122.217 221.33 122.172 221.3 122.127 221.27C122.081 221.239 122.051 221.209 122.021 221.194C121.991 221.164 121.961 221.149 121.915 221.118C121.84 221.058 121.764 220.997 121.704 220.937C121.492 220.74 121.281 220.528 121.115 220.286C120.858 219.938 120.662 219.545 120.541 219.121C120.949 219.091 121.402 219.091 121.84 219.015C125.328 218.425 126.687 214.174 132.894 204.082C133.437 203.189 133.89 202.478 134.162 202.054C133.437 200.98 132.562 199.407 131.927 197.379C131.369 195.579 131.172 193.975 131.127 192.78C131.127 192.78 131.127 192.78 131.127 192.764C131.52 192.462 131.912 192.144 132.305 191.826C132.622 191.584 132.924 191.327 133.226 191.085C133.558 190.767 133.89 190.45 134.238 190.117C134.253 190.117 134.268 190.132 134.283 190.132C134.313 190.147 134.344 190.147 134.374 190.162C134.449 190.192 134.555 190.238 134.691 190.283C134.706 190.298 134.736 190.298 134.766 190.313C134.781 190.313 134.781 190.313 134.797 190.329C134.827 190.344 134.842 190.344 134.872 190.359C134.902 190.374 134.917 190.374 134.948 190.389C134.963 190.389 134.963 190.389 134.978 190.404C135.008 190.419 135.053 190.434 135.099 190.45C135.144 190.465 135.174 190.48 135.219 190.495C135.235 190.495 135.25 190.51 135.265 190.51C135.295 190.525 135.325 190.525 135.355 190.54C135.37 190.555 135.401 190.555 135.416 190.571C135.446 190.586 135.461 190.586 135.491 190.601C135.537 190.616 135.582 190.631 135.642 190.661C135.748 190.692 135.839 190.737 135.944 190.782C136.261 190.903 136.594 191.025 136.971 191.161C137.349 191.312 137.756 191.463 138.179 191.615C138.225 191.63 138.255 191.645 138.3 191.66C138.391 191.69 138.481 191.736 138.572 191.766C138.587 191.766 138.602 191.781 138.617 191.781C138.768 191.842 138.919 191.902 139.07 191.947C139.372 192.068 139.674 192.174 139.976 192.295C140.157 192.371 140.354 192.432 140.535 192.507C140.626 192.538 140.716 192.583 140.807 192.613C140.822 192.628 140.852 192.628 140.867 192.643C140.958 192.674 141.048 192.719 141.139 192.749C141.26 192.734 141.335 192.764 141.396 192.78Z" fill="white"/>
<path d="M141.396 192.78L140.898 193.627L140.203 194.853L139.327 196.381L138.617 197.606L138.587 197.667L138.361 198.045L137.621 199.316L137.153 200.133L136.896 200.541L136.005 201.964L135.703 202.463C133.8 199.634 132.849 195.549 133.241 191.07V191.055C133.256 190.934 133.256 190.828 133.272 190.707C133.604 190.495 133.921 190.298 134.253 190.087C134.268 190.087 134.283 190.102 134.298 190.102C134.329 190.117 134.359 190.117 134.389 190.132C134.465 190.162 134.57 190.208 134.706 190.253C134.721 190.268 134.751 190.268 134.782 190.283C134.797 190.283 134.797 190.283 134.812 190.298C134.827 190.298 134.842 190.314 134.842 190.314C134.857 190.314 134.872 190.329 134.887 190.329C134.918 190.344 134.933 190.344 134.963 190.359C134.978 190.359 134.978 190.359 134.993 190.374C135.023 190.389 135.069 190.404 135.114 190.419C135.159 190.435 135.189 190.45 135.235 190.465C135.25 190.465 135.265 190.48 135.28 190.48C135.31 190.495 135.34 190.495 135.371 190.51C135.386 190.525 135.416 190.525 135.431 190.54C135.446 190.54 135.461 190.556 135.476 190.556H135.491C135.537 190.571 135.582 190.586 135.642 190.616C135.748 190.646 135.839 190.692 135.944 190.737C136.262 190.858 136.594 190.979 136.971 191.115C137.349 191.267 137.757 191.418 138.179 191.569C138.225 191.584 138.255 191.6 138.3 191.615C138.391 191.645 138.481 191.69 138.572 191.721C138.587 191.721 138.602 191.736 138.617 191.736C138.768 191.796 138.919 191.857 139.07 191.902C139.372 192.023 139.674 192.129 139.976 192.25C140.158 192.326 140.354 192.386 140.535 192.462C140.626 192.492 140.716 192.538 140.807 192.568C140.822 192.583 140.852 192.583 140.867 192.598C140.958 192.628 141.049 192.674 141.139 192.704C141.26 192.734 141.336 192.765 141.396 192.78Z" fill="#B600A0"/>
<path fill-rule="evenodd" clip-rule="evenodd" d="M144.613 194.005C144.492 194.187 144.371 194.383 144.25 194.565C143.994 194.974 143.737 195.367 143.48 195.76C143.163 196.26 142.831 196.759 142.514 197.273C142.257 197.667 142 198.075 141.743 198.469C141.381 199.028 141.019 199.588 140.656 200.163C140.399 200.557 140.143 200.965 139.886 201.358C138.557 203.416 137.213 205.474 135.884 207.516C134.132 210.21 132.154 212.767 130.584 215.581C130.508 215.702 130.448 215.823 130.372 215.944C130.372 215.944 127.745 220.77 125.676 221.693C124.679 222.147 123.894 222.026 123.652 221.981C123.607 221.966 123.577 221.966 123.577 221.966C123.426 221.935 123.229 221.875 123.003 221.784C122.912 221.754 122.625 221.633 122.278 221.376C122.097 221.255 121.916 221.103 121.719 220.922C121.568 220.77 121.372 220.574 121.191 220.286C121.765 220.211 122.414 220.059 123.109 219.787C126.793 218.335 127.896 214.734 131.988 208.091C132.804 206.775 134.057 204.808 135.748 202.463C135.914 201.752 136.065 201.056 136.231 200.345L136.534 199.013C136.685 198.393 136.82 197.757 136.956 197.137C137.062 196.698 137.153 196.244 137.258 195.806C137.379 195.246 137.515 194.701 137.636 194.141C137.742 193.703 137.847 193.264 137.938 192.81C138.029 192.401 138.119 191.993 138.225 191.569C138.557 191.463 141.23 190.692 143.284 192.311C143.963 192.855 144.371 193.506 144.613 194.005Z" fill="#4ABA6B"/>
<path d="M144.25 194.55C143.993 194.959 143.737 195.352 143.48 195.745L140.218 194.853L137.651 194.142C137.757 193.703 137.862 193.264 137.953 192.81L140.928 193.627L144.25 194.55Z" fill="#FFE323"/>
<path d="M142.498 197.258C142.242 197.652 141.985 198.06 141.728 198.454L138.633 197.591L136.956 197.122C137.062 196.683 137.153 196.229 137.258 195.791L139.342 196.366L142.498 197.258Z" fill="#FFE323"/>
<path d="M140.626 200.148C140.369 200.541 140.112 200.95 139.856 201.343L136.911 200.526L136.201 200.33L136.503 198.998L137.621 199.301L140.626 200.148Z" fill="#FFE323"/>
<path d="M129.149 203.931C130.275 203.931 131.187 203.016 131.187 201.888C131.187 200.76 130.275 199.846 129.149 199.846C128.023 199.846 127.11 200.76 127.11 201.888C127.11 203.016 128.023 203.931 129.149 203.931Z" fill="#F73200"/>
<path d="M130.538 215.581C130.463 215.702 130.402 215.823 130.327 215.944C130.327 215.944 127.699 220.771 125.63 221.694C124.437 222.223 123.546 221.951 123.546 221.951C123.395 221.92 123.199 221.86 122.972 221.769C122.882 221.739 122.595 221.618 122.248 221.361C122.67 221.224 123.123 221.164 123.607 221.24C124.211 221.33 124.316 221.542 124.724 221.527C125.947 221.467 126.491 219.53 127.593 218.032C128.167 217.245 129.058 216.337 130.538 215.581Z" fill="#F73200"/>
<path d="M134.419 190.147C134.026 190.45 133.648 190.767 133.256 191.07C132.546 191.63 131.851 192.19 131.142 192.749C131.066 192.81 131.006 192.855 130.93 192.916C129.224 194.262 127.487 195.639 125.751 197.001C125.282 199.997 124.995 203.008 124.89 205.943C124.86 206.76 124.844 207.516 124.829 208.243C124.754 211.934 124.709 214.597 122.791 215.777C122.474 215.974 122.141 216.11 121.779 216.186C121.417 216.277 121.009 216.307 120.586 216.277L120.677 214.915C121.235 214.945 121.703 214.839 122.081 214.597C123.365 213.811 123.41 211.45 123.485 208.197C123.5 207.456 123.516 206.684 123.546 205.867C123.667 202.796 123.969 199.634 124.467 196.502L124.512 196.26V196.244L124.724 196.078C126.536 194.656 128.348 193.234 130.115 191.826C131.172 190.979 132.229 190.147 133.301 189.3C133.618 189.557 133.951 189.814 134.298 190.086C134.313 190.086 134.328 190.102 134.343 190.102C134.358 190.132 134.388 190.147 134.419 190.147Z" fill="#FFE323"/>
<path fill-rule="evenodd" clip-rule="evenodd" d="M161.783 76.0355C159.185 75.0974 156.603 74.1745 154.006 73.2364C153.915 73.2062 153.809 73.1608 153.719 73.1305C152.344 75.8691 150.744 78.7741 148.886 81.8001C148.826 81.8909 148.765 81.9968 148.705 82.0876C148.101 83.0559 147.497 84.0091 146.878 84.9169C144.99 87.7614 143.087 90.3184 141.26 92.603C139.372 90.0158 136.609 86.6266 132.819 83.1164C127.458 78.1537 121.931 74.7041 118.412 72.9944C117.702 72.6464 116.992 72.3438 116.283 72.0412C113.489 70.9064 110.605 70.1801 107.751 69.7414C104.609 69.2572 101.484 69.121 98.5388 69.2118C96.9985 69.2572 95.5186 69.3631 94.0839 69.5144C87.2733 70.2255 81.9275 71.8899 80.1606 72.4497C79.9945 68.5763 79.9492 64.4609 80.07 60.1035C80.1002 59.0595 80.1304 58.0458 80.1757 57.032C80.2361 55.4888 80.3267 53.9909 80.4324 52.5081C80.5683 50.5109 80.7345 48.5894 80.9308 46.7133C80.8251 46.683 80.7194 46.6528 80.6137 46.6225C77.3669 45.6844 74.1201 44.7312 70.8583 43.7932C70.7224 43.7478 70.5864 43.7175 70.4656 43.6721C69.922 47.4093 69.469 50.9043 69.0612 54.0968C68.4723 58.8174 68.1702 61.1777 68.0494 62.7664C67.3246 71.9201 66.7507 79.0918 70.9187 83.0256C73.0932 85.0833 75.7058 85.4465 80.5532 86.1273C86.4427 86.9595 91.3506 86.2332 94.4615 85.5221C93.8423 88.0489 93.2836 90.9538 92.906 94.1614C92.6493 96.3856 92.5134 98.4887 92.4681 100.425C92.4379 101.59 92.4379 102.695 92.4681 103.754C93.1477 103.875 93.8121 103.996 94.4615 104.117C102.661 105.66 109.472 107.779 114.622 109.64C117.31 104.919 119.998 100.213 122.686 95.4929C124.392 97.3085 127.095 99.7899 130.871 101.984C132.003 102.634 133.09 103.27 134.163 103.83C135.567 104.571 136.926 105.206 138.285 105.615C139.841 106.084 141.381 106.266 142.967 106.008C148.841 105.07 152.254 98.6551 156.648 90.394C159.714 84.6294 161.45 79.5608 162.447 76.2322C162.236 76.1868 162.009 76.1112 161.783 76.0355Z" fill="#5F2CE6"/>
<path d="M96.7869 72.0864C95.5486 72.3285 94.3556 71.5115 94.114 70.2708C94.0687 70.0136 94.0536 69.7715 94.0989 69.5143C95.5184 69.363 97.0134 69.2571 98.5537 69.2117C98.5688 69.2722 98.5839 69.3327 98.5991 69.3932C98.8256 70.649 98.0252 71.8443 96.7869 72.0864Z" fill="#00B657"/>
<path d="M71.8699 77.0038C73.1292 77.0038 74.1502 75.9809 74.1502 74.7191C74.1502 73.4573 73.1292 72.4344 71.8699 72.4344C70.6105 72.4344 69.5896 73.4573 69.5896 74.7191C69.5896 75.9809 70.6105 77.0038 71.8699 77.0038Z" fill="#FFE323"/>
<path d="M80.4473 52.5384C80.3416 54.0061 80.2661 55.5191 80.1906 57.0623C79.058 57.1531 78.0009 56.3664 77.7895 55.2165C77.5479 53.9758 78.3634 52.7805 79.5866 52.5384C79.8886 52.4779 80.1755 52.4779 80.4473 52.5384Z" fill="#00B657"/>
<path d="M108.792 94.5699C110.052 94.5699 111.073 93.547 111.073 92.2853C111.073 91.0235 110.052 90.0006 108.792 90.0006C107.533 90.0006 106.512 91.0235 106.512 92.2853C106.512 93.547 107.533 94.5699 108.792 94.5699Z" fill="#00B657"/>
<path d="M122.051 85.3557C123.31 85.3557 124.331 84.3328 124.331 83.071C124.331 81.8093 123.31 80.7864 122.051 80.7864C120.792 80.7864 119.771 81.8093 119.771 83.071C119.771 84.3328 120.792 85.3557 122.051 85.3557Z" fill="#FFE323"/>
<path d="M138.3 105.66C136.941 105.252 135.582 104.631 134.178 103.875C134.389 103.043 135.054 102.347 135.96 102.18C137.198 101.938 138.391 102.755 138.633 103.996C138.753 104.586 138.617 105.176 138.3 105.66Z" fill="#00B657"/>
<path d="M94.4762 104.147C93.8269 104.026 93.1473 103.905 92.4829 103.784C92.4527 102.725 92.4527 101.621 92.4829 100.456C93.6305 100.35 94.7027 101.136 94.9293 102.301C95.0501 102.982 94.8688 103.648 94.4762 104.147Z" fill="#00B657"/>
<path d="M149.445 86.324C148.358 86.5358 147.285 85.9306 146.893 84.9169C147.497 84.0091 148.116 83.0559 148.72 82.0875C148.78 81.9968 148.841 81.8909 148.901 81.8001C150.019 81.7396 151.046 82.5112 151.257 83.646C151.484 84.8866 150.668 86.0819 149.445 86.324Z" fill="#FFE323"/>
<path fill-rule="evenodd" clip-rule="evenodd" d="M80.6286 46.6528C77.3819 45.7147 74.1351 44.7615 70.8733 43.8235C69.6652 41.9776 69.2876 39.7989 69.7709 37.8168C69.4537 37.6655 69.3933 37.6504 69.3933 37.6504C65.4972 36.6518 62.2958 38.5128 61.4803 37.1208C61.4501 37.0754 61.284 36.7728 61.3293 36.44C60.7554 36.5459 60.3024 36.5005 60.0004 36.1374C59.9702 36.1071 59.6984 35.7742 59.7286 35.3657C59.789 34.7605 60.5289 34.3217 61.4501 33.9737C60.4534 34.0645 59.7437 34.0343 59.4114 33.4745C59.3812 33.4291 59.1698 33.0508 59.2906 32.6726C59.5775 31.7042 61.6162 31.5378 63.232 31.4168C64.5609 31.3108 66.1466 31.2049 68.1399 31.7194C69.6954 32.1127 70.828 32.7179 71.5679 33.1265C71.9454 33.3383 72.3079 33.5501 72.625 33.7468C72.2928 32.612 71.9605 31.4773 71.6283 30.3274C70.0427 30.3879 68.6685 30.403 67.5661 30.403C65.9352 30.403 64.8781 30.3425 64.5307 29.6919C64.5005 29.6163 64.3495 29.3591 64.425 29.0867C64.5761 28.5723 65.3915 28.2243 69.197 28.0125C71.5226 27.8914 72.6703 27.8309 72.9572 27.9822C73.9841 28.5269 74.1955 29.5255 75.6301 34.004C75.902 34.4277 79.0732 41.2816 80.6286 46.6528Z" fill="#FF8F6D"/>
<path fill-rule="evenodd" clip-rule="evenodd" d="M159.895 64.9905L159.698 64.9602L156.98 64.5214L156.331 64.4155L154.64 64.1432L152.299 63.7649H152.254L149.43 63.311C149.415 63.3262 149.415 63.3564 149.399 63.3716C149.384 63.3413 149.369 63.311 149.354 63.2959C148.916 62.6453 148.508 62.1914 147.95 62.1763C147.466 62.1763 146.953 62.4637 146.727 62.8723C146.545 63.19 146.273 64.007 148.01 66.5791C147.466 68.0316 147.285 69.1059 147.814 69.6203C147.859 69.6506 148.071 69.8624 148.373 69.8926C148.826 69.938 149.309 69.59 149.762 69.0151C149.762 69.0302 149.747 69.0454 149.747 69.0605C149.505 69.8019 149.46 70.3768 149.762 70.7399C149.943 70.9518 150.215 71.0274 150.306 71.0425C150.547 71.0879 150.804 70.982 151.076 70.7702C151.151 70.7097 151.242 70.634 151.317 70.5584C152.087 71.33 152.963 72.1319 153.975 72.9489C153.99 73.0548 154.005 73.1456 154.02 73.2515C156.618 74.1896 159.2 75.1125 161.798 76.0506C160.529 69.1967 159.91 65.2174 159.895 64.9905Z" fill="#FF8F6D"/>
<path fill-rule="evenodd" clip-rule="evenodd" d="M149.415 61.2836C149.837 61.2231 150.245 61.1474 150.608 61.0718C150.532 61.1777 150.457 61.2987 150.366 61.4349L153.915 62.0098L156.195 62.3729L156.255 62.3881L156.346 62.4032L158.49 62.7512L159.608 62.9328C159.351 61.6013 159.004 60.8145 158.279 60.2396C157.977 59.9975 157.267 59.7252 155.848 59.1805C154.036 58.4845 153.129 58.1365 152.178 58.1062C151.332 58.076 151.574 58.2575 148.962 58.7266C146.983 59.0746 146.032 59.1048 145.76 59.7554C145.624 60.0883 145.715 60.4817 145.851 60.7238C146.304 61.5105 147.92 61.5105 149.415 61.2836Z" fill="#FF8F6D"/>
<path d="M70.5258 34.5789C69.2422 33.9737 67.868 33.6106 66.4485 33.5198C64.8024 33.4139 63.1262 33.6711 61.5708 34.2763L61.3442 33.7165C62.9752 33.081 64.742 32.8087 66.4787 32.9146C67.9737 33.0205 69.4083 33.3837 70.7674 34.0342L70.5258 34.5789Z" fill="black"/>
<path d="M61.5408 36.667L61.1179 36.2282C61.2387 36.1071 64.108 33.4594 70.224 35.5776L70.0276 36.1525C64.259 34.1554 61.571 36.6518 61.5408 36.667Z" fill="black"/>
<path d="M154.126 67.5475C152.646 66.7304 151.333 65.7016 150.23 64.4609C149.687 63.8406 149.188 63.1748 148.75 62.4637L149.264 62.146C149.687 62.8269 150.155 63.4623 150.683 64.0524C151.74 65.2477 152.994 66.2463 154.428 67.0179L154.126 67.5475Z" fill="black"/>
<defs>
<linearGradient id="paint0_linear_492_425" x1="112.063" y1="66.1424" x2="122.046" y2="66.1424" gradientUnits="userSpaceOnUse">
<stop offset="0.5605"/>
<stop offset="1" stop-color="#1244EE"/>
</linearGradient>
</defs>
</svg>
