<svg width="289" height="283" viewBox="0 0 289 283" fill="none" xmlns="http://www.w3.org/2000/svg">
<path d="M46.6305 266.105H49.8205V260.033L55.0565 250.375H51.7125L49.3805 255.039C48.9185 255.985 48.3245 257.283 48.3245 257.283H48.2805C48.2805 257.283 47.7305 255.985 47.2465 255.039L44.8705 250.375H41.3945L46.6305 260.033V266.105ZM59.1361 266.435C62.6341 266.435 65.0321 263.839 65.0321 260.473C65.0321 257.107 62.6341 254.511 59.1361 254.511C55.6381 254.511 53.2401 257.107 53.2401 260.473C53.2401 263.839 55.6381 266.435 59.1361 266.435ZM59.1361 264.147C57.2881 264.147 56.2761 262.673 56.2761 260.473C56.2761 258.273 57.2881 256.777 59.1361 256.777C60.9621 256.777 61.9961 258.273 61.9961 260.473C61.9961 262.673 60.9621 264.147 59.1361 264.147ZM76.4329 266.105V254.819H73.4409V261.331C73.4409 262.827 72.5829 263.883 71.1749 263.883C69.8989 263.883 69.3049 263.157 69.3049 261.837V254.819H66.3349V262.343C66.3349 264.807 67.7429 266.413 70.2509 266.413C71.8349 266.413 72.7149 265.819 73.4849 264.785H73.5509V266.105H76.4329ZM85.0555 250.375H82.0635V266.105H85.0555V259.703C85.0555 258.163 86.0235 257.107 87.3435 257.107C88.5975 257.107 89.3015 257.965 89.3015 259.175V266.105H92.2935V258.735C92.2935 256.271 90.7315 254.511 88.3995 254.511C86.8595 254.511 85.9355 255.105 85.1215 256.293H85.0555V250.375ZM101.244 266.105H104.126V265.995C103.862 265.797 103.73 265.291 103.73 264.433V258.691C103.73 256.051 102.366 254.533 98.9778 254.533C95.6778 254.533 94.2038 256.271 94.1158 258.251H96.7778C96.8658 257.173 97.5478 256.667 98.9558 256.667C100.21 256.667 100.848 257.195 100.848 258.009C100.848 258.867 99.9898 259.021 98.1198 259.285C95.6118 259.637 93.5878 260.429 93.5878 262.915C93.5878 265.159 95.2158 266.369 97.5258 266.369C99.4618 266.369 100.276 265.709 100.848 264.851H100.892C100.958 265.357 101.068 265.885 101.244 266.105ZM98.2518 264.279C97.1958 264.279 96.4918 263.905 96.4918 262.849C96.4918 261.793 97.2618 261.441 98.8238 261.089C99.5718 260.913 100.386 260.737 100.914 260.429V262.123C100.914 263.223 99.9678 264.279 98.2518 264.279ZM108.516 266.105H111.376L115.314 254.819H112.322L110.474 260.671C110.144 261.749 109.99 262.475 109.99 262.475H109.946C109.946 262.475 109.77 261.749 109.44 260.671L107.636 254.819H104.6L108.516 266.105ZM121.311 266.435C124.215 266.435 125.997 264.741 126.415 262.739H123.467C123.137 263.597 122.455 264.125 121.289 264.125C119.595 264.125 118.627 263.047 118.407 261.309H126.591C126.591 257.283 124.655 254.511 121.025 254.511C117.725 254.511 115.459 257.107 115.459 260.451C115.459 263.817 117.571 266.435 121.311 266.435ZM121.069 256.821C122.433 256.821 123.379 257.811 123.467 259.241H118.451C118.715 257.767 119.485 256.821 121.069 256.821ZM134.597 254.819H131.671V266.105H134.663V259.703C134.663 258.163 135.631 257.107 136.951 257.107C138.205 257.107 138.909 257.965 138.909 259.175V266.105H141.901V258.735C141.901 256.271 140.339 254.511 138.007 254.511C136.467 254.511 135.433 255.149 134.663 256.359H134.597V254.819ZM149.091 266.435C152.589 266.435 154.987 263.839 154.987 260.473C154.987 257.107 152.589 254.511 149.091 254.511C145.593 254.511 143.195 257.107 143.195 260.473C143.195 263.839 145.593 266.435 149.091 266.435ZM149.091 264.147C147.243 264.147 146.231 262.673 146.231 260.473C146.231 258.273 147.243 256.777 149.091 256.777C150.917 256.777 151.951 258.273 151.951 260.473C151.951 262.673 150.917 264.147 149.091 264.147ZM159.413 256.799H160.975V263.421C160.975 265.555 162.581 266.127 164.033 266.127C165.221 266.127 165.903 266.083 165.903 266.083V263.883C165.903 263.883 165.397 263.905 165.023 263.905C164.363 263.905 163.901 263.619 163.901 262.783V256.799H165.837V254.819H163.901V251.299H160.975V254.819H159.413V256.799ZM172.617 266.435C176.115 266.435 178.513 263.839 178.513 260.473C178.513 257.107 176.115 254.511 172.617 254.511C169.119 254.511 166.721 257.107 166.721 260.473C166.721 263.839 169.119 266.435 172.617 266.435ZM172.617 264.147C170.769 264.147 169.757 262.673 169.757 260.473C169.757 258.273 170.769 256.777 172.617 256.777C174.443 256.777 175.477 258.273 175.477 260.473C175.477 262.673 174.443 264.147 172.617 264.147ZM184.127 266.435C185.711 266.435 186.833 265.709 187.493 264.631H187.537V266.105H190.419V250.375H187.427V256.183H187.361C186.745 255.237 185.755 254.511 184.171 254.511C181.355 254.511 179.353 256.953 179.353 260.473C179.353 264.125 181.289 266.435 184.127 266.435ZM184.787 263.927C183.247 263.927 182.389 262.651 182.389 260.473C182.389 258.383 183.225 256.931 184.875 256.931C186.789 256.931 187.493 258.383 187.493 260.539C187.493 262.607 186.569 263.927 184.787 263.927ZM197.71 266.435C201.208 266.435 203.606 263.839 203.606 260.473C203.606 257.107 201.208 254.511 197.71 254.511C194.212 254.511 191.814 257.107 191.814 260.473C191.814 263.839 194.212 266.435 197.71 266.435ZM197.71 264.147C195.862 264.147 194.85 262.673 194.85 260.473C194.85 258.273 195.862 256.777 197.71 256.777C199.536 256.777 200.57 258.273 200.57 260.473C200.57 262.673 199.536 264.147 197.71 264.147ZM209.573 266.435C212.389 266.435 214.325 265.071 214.325 262.805C214.325 260.165 212.235 259.637 210.343 259.241C208.737 258.911 207.241 258.823 207.241 257.855C207.241 257.041 208.011 256.601 209.177 256.601C210.453 256.601 211.223 257.041 211.355 258.251H214.061C213.841 255.985 212.191 254.511 209.221 254.511C206.647 254.511 204.623 255.677 204.623 258.119C204.623 260.583 206.603 261.133 208.627 261.529C210.167 261.837 211.597 261.947 211.597 263.025C211.597 263.817 210.849 264.323 209.529 264.323C208.187 264.323 207.263 263.751 207.065 262.453H204.293C204.469 264.851 206.295 266.435 209.573 266.435ZM219.612 269.801H221.372C223.66 269.801 224.496 268.899 225.354 266.391L229.292 254.819H226.278L224.694 259.901C224.342 260.935 224.034 262.365 224.034 262.365H223.99C223.99 262.365 223.616 260.935 223.264 259.901L221.592 254.819H218.446L221.482 262.849C222.12 264.565 222.34 265.291 222.34 265.907C222.34 266.831 221.856 267.447 220.668 267.447H219.612V269.801ZM235.285 266.435C238.189 266.435 239.971 264.741 240.389 262.739H237.441C237.111 263.597 236.429 264.125 235.263 264.125C233.569 264.125 232.601 263.047 232.381 261.309H240.565C240.565 257.283 238.629 254.511 234.999 254.511C231.699 254.511 229.433 257.107 229.433 260.451C229.433 263.817 231.545 266.435 235.285 266.435ZM235.043 256.821C236.407 256.821 237.353 257.811 237.441 259.241H232.425C232.689 257.767 233.459 256.821 235.043 256.821ZM241.075 256.799H242.637V263.421C242.637 265.555 244.243 266.127 245.695 266.127C246.883 266.127 247.565 266.083 247.565 266.083V263.883C247.565 263.883 247.059 263.905 246.685 263.905C246.025 263.905 245.563 263.619 245.563 262.783V256.799H247.499V254.819H245.563V251.299H242.637V254.819H241.075V256.799Z" fill="#6D6D6D"/>
<path d="M159.358 143.445V148.766H146.09V143.445H159.358Z" fill="#B600A0"/>
<path d="M71.3937 114.909C71.1971 114.909 71.0155 114.788 70.8794 114.561C70.4255 113.775 69.8053 110.646 68.9883 105.022C65.5541 104.221 63.6328 103.616 63.1336 103.163C62.9369 102.982 62.831 102.679 62.8915 102.392C62.9823 101.908 63.073 101.349 68.8522 99.8523C70.5314 89.0737 71.1819 88.8923 71.5753 88.7865C71.6207 88.7714 71.6661 88.7714 71.6963 88.7714C71.893 88.7714 72.0745 88.8923 72.2107 89.1191C72.6948 89.9505 73.3756 93.5786 74.2682 99.8674C80.017 101.364 80.1078 101.908 80.1986 102.407C80.244 102.694 80.1532 102.982 79.9565 103.178C79.4573 103.632 77.5208 104.251 74.0412 105.053C72.4981 114.652 71.9232 114.803 71.5148 114.924C71.4694 114.909 71.424 114.909 71.3937 114.909Z" fill="#FFE700"/>
<path d="M196.461 133.171C196.31 133.171 196.159 133.095 196.053 132.944C195.705 132.445 195.221 130.48 194.57 126.912C191.878 126.413 190.38 126.02 189.986 125.733C189.835 125.612 189.76 125.431 189.79 125.249C189.85 124.947 189.926 124.584 194.465 123.647C195.781 116.829 196.295 116.723 196.598 116.647C196.628 116.647 196.658 116.632 196.704 116.632C196.855 116.632 197.006 116.708 197.112 116.859C197.49 117.388 198.035 119.671 198.731 123.647C203.239 124.584 203.315 124.947 203.375 125.249C203.421 125.431 203.345 125.612 203.179 125.733C202.785 126.02 201.272 126.413 198.549 126.912C197.339 132.974 196.885 133.08 196.567 133.14C196.522 133.155 196.492 133.171 196.461 133.171Z" fill="#B600A0"/>
<path d="M150.713 29.0128C150.607 29.0128 150.516 28.9675 150.456 28.8768C150.229 28.5593 149.911 27.2744 149.502 24.9765C147.763 24.644 146.794 24.4021 146.537 24.2207C146.431 24.1451 146.386 24.0242 146.416 23.9032C146.462 23.7067 146.507 23.4799 149.442 22.8601C150.289 18.461 150.622 18.3854 150.819 18.3401C150.834 18.3401 150.864 18.3401 150.879 18.3401C150.985 18.3401 151.076 18.3854 151.136 18.4761C151.378 18.8238 151.726 20.2902 152.18 22.8601C155.085 23.4648 155.145 23.6916 155.176 23.8881C155.206 24.009 155.16 24.13 155.055 24.2056C154.797 24.387 153.829 24.644 152.059 24.9765C151.272 28.8919 150.985 28.9524 150.773 28.9977C150.758 28.9977 150.728 29.0128 150.713 29.0128Z" fill="#00DBC5"/>
<path d="M69.7236 152.655L73.4891 148.892L82.8707 158.267L79.1053 162.029L69.7236 152.655Z" fill="#00DBC5"/>
<path d="M227.813 43.2434L224.488 46.241L217.029 37.9809L220.354 34.9833L227.813 43.2434Z" fill="#FFE700"/>
<path d="M224.039 200.772L226.468 204.532L217.112 210.566L214.684 206.806L224.039 200.772Z" fill="#FFE700"/>
<path d="M54.0224 196.495L57.9004 198.733L52.3331 208.368L48.4551 206.131L54.0224 196.495Z" fill="#FFE700"/>
<path d="M66.3337 54.2465L62.5683 58.0091L53.1866 48.6345L56.9521 44.8719L66.3337 54.2465Z" fill="#B600A0"/>
<path d="M94.3303 195.14L97.2182 199.611L86.0706 206.801L83.1827 202.33L94.3303 195.14Z" fill="#B600A0"/>
<path d="M238.035 151.323L240.923 155.794L229.776 162.984L226.888 158.513L238.035 151.323Z" fill="#B600A0"/>
<path d="M225.148 112.611L221.764 108.502L232.01 100.078L235.393 104.187L225.148 112.611Z" fill="#00DBC5"/>
<path d="M103.275 64.9933L106.072 68.0908L98.3673 75.038L95.5701 71.9404L103.275 64.9933Z" fill="#F73200"/>
<path d="M144.571 205.581L146.115 209.458L136.473 213.293L134.929 209.416L144.571 205.581Z" fill="#F73200"/>
<path d="M196.301 3.93189L199.098 7.02945L191.393 13.9766L188.596 10.879L196.301 3.93189Z" fill="#F73200"/>
<path d="M194.352 165.121L196.852 161.779L205.164 167.989L202.663 171.33L194.352 165.121Z" fill="#F73200"/>
<path fill-rule="evenodd" clip-rule="evenodd" d="M126.228 38.3916L104.784 34.0795L105.645 9.65942L74.3398 0.0820312L73.3734 27.7551H73.3129L73.1921 32.4L126.137 42.2044L126.228 38.3916Z" fill="#5078FF"/>
<path fill-rule="evenodd" clip-rule="evenodd" d="M103.863 12.4132C103.621 18.8284 103.364 25.2436 103.123 31.6587C101.371 31.3107 99.6192 30.9628 97.8674 30.6148C96.5385 30.3424 95.1945 30.0852 93.8656 29.8129C92.6726 29.5708 91.4796 29.3438 90.3017 29.1017C87.3721 28.5268 84.4424 27.9367 81.5279 27.3618C79.8064 27.0138 78.0848 26.6809 76.3633 26.3329C76.5596 18.9645 76.7408 11.581 76.9371 4.21265C80.1084 5.18098 83.2796 6.13418 86.4358 7.10251C89.0936 7.9044 91.7363 8.72143 94.3941 9.52333C95.6475 9.90158 96.8858 10.2798 98.1392 10.6581C99.0151 10.9304 99.891 11.1876 100.782 11.46C101.794 11.7777 102.836 12.0955 103.863 12.4132Z" fill="#121212"/>
<path d="M93.1861 14.5162C91.3739 18.7375 88.6255 19.721 88.112 22.7167C87.8704 24.0936 88.0667 26.1967 90.2866 29.1168C87.357 28.5419 84.4273 27.9518 81.5128 27.3768C81.2259 26.1664 81.09 25.0468 81.0749 24.0482C81.0749 24.0482 81.0598 22.6714 81.3165 21.355C82.1018 17.2094 85.6203 15.4694 86.4962 11.2632C86.6774 10.3857 86.8284 8.97857 86.4358 7.13269C89.0936 7.93459 91.7363 8.75162 94.3941 9.55351C94.3035 10.7185 94.0317 12.5342 93.1861 14.5162Z" fill="white"/>
<path d="M95.9195 23.3674C95.3758 25.2435 95.8138 27.6039 97.8675 30.6148C96.5386 30.3424 95.1946 30.0852 93.8657 29.8129C92.1291 25.7731 92.416 23.2312 93.2163 21.5669C94.364 19.2066 96.5235 18.6468 97.6712 15.7418C98.3508 14.0321 98.381 12.2619 98.1242 10.6581C99.0001 10.9304 99.876 11.1876 100.767 11.46C101.009 14.3347 100.45 16.5286 99.5136 18.2232C98.1846 20.6289 96.5386 21.2189 95.9195 23.3674Z" fill="white"/>
<path d="M183.099 58.8324C181.528 56.0031 183.053 52.9317 185.56 51.2976C188.656 49.2853 192.477 49.6635 195.905 48.7104C197.43 48.2867 198.985 47.5453 199.906 46.1987C200.42 45.4422 200.722 44.5949 200.843 43.7023H202.096V45.8659C201.235 47.8782 199.514 49.3609 197.294 50.1628C193.836 51.4186 189.758 50.7681 186.557 52.7955C185.334 53.5671 184.216 54.8381 184.231 56.3662C184.246 57.5464 185.001 59.014 186.285 59.1804C187.433 59.3317 187.433 61.1473 186.285 60.996C184.926 60.8296 183.778 60.0731 183.099 58.8324Z" fill="#F73200"/>
<path d="M172.181 63.5379C168.677 62.9932 165.415 60.7388 162.999 58.2423C161.957 57.1681 160.961 55.988 159.647 55.2314V53.2343C161.7 54.0967 163.301 56.0485 164.917 57.6069C166.276 58.9232 167.832 59.9823 169.538 60.7842C171.169 61.5558 173.313 62.3124 175.065 61.4953C176.439 60.8599 177.164 59.4376 176.439 58.0305C175.73 56.6839 174.431 55.7307 173.479 54.5506C171.411 51.9785 171.063 48.4834 172.045 45.3968C172.226 44.8068 172.468 44.247 172.739 43.7023H174.808C173.479 45.9264 172.906 48.6347 173.676 51.1614C174.144 52.6744 175.141 53.7336 176.198 54.8532C177.164 55.8669 178.206 57.0017 178.478 58.4239C178.78 59.9521 178.161 61.4348 176.968 62.4183C175.624 63.5379 173.872 63.8102 172.181 63.5379Z" fill="#F73200"/>
<path d="M194.244 74.8402H192.129C191.45 73.7055 190.8 72.6161 189.834 71.6478C187.463 69.2572 184.05 67.9106 180.713 68.8335C177.647 69.6808 176.077 72.4497 174.28 74.8402H171.969C171.999 74.81 172.03 74.7646 172.06 74.7343C173.902 72.5858 175.201 69.9683 177.572 68.3191C180.32 66.3976 184.05 66.3068 187.07 67.5929C190.091 68.8789 192.311 71.3452 193.866 74.1745C193.972 74.3561 194.093 74.5981 194.244 74.8402Z" fill="#F73200"/>
<path d="M202.111 70.2708V72.5554C201.251 73.2817 200.45 74.0836 199.605 74.8401H196.72C197.007 74.6434 197.264 74.4315 197.49 74.2651C198.849 73.2211 200.012 71.9653 201.341 70.876C201.598 70.6641 201.855 70.4674 202.111 70.2708Z" fill="#F73200"/>
<path d="M211.112 64.6728C210.961 65.1116 210.433 65.4293 209.874 65.3083L207.881 64.9905L207.684 64.9603L204.966 64.5215L204.317 64.4156L202.625 64.1433L200.285 63.765H200.239L197.415 63.3111L197.34 63.296C196.902 62.6454 196.494 62.1915 195.936 62.1763C195.452 62.1763 194.939 62.4638 194.712 62.8723C192.945 62.5848 191.179 62.2974 189.427 62.025C188.793 61.7527 188.158 61.4955 187.524 61.2231C186.86 60.9357 186.195 60.6633 185.531 60.3758C186.225 60.3305 186.935 60.2699 187.63 60.2245C188.34 60.1792 189.034 60.1186 189.744 60.0732L193.867 60.739C194.335 61.5409 195.951 61.5257 197.446 61.3139L198.412 61.4652L201.961 62.0402L204.241 62.4033L204.302 62.4184L204.392 62.4335L206.839 62.8269L207.08 62.8572L207.654 62.948L210.251 63.3716C210.886 63.4473 211.278 64.1433 211.112 64.6728Z" fill="black"/>
<path d="M187.629 60.5109C187.629 60.7529 187.584 60.995 187.493 61.2068C186.829 60.9194 186.164 60.647 185.5 60.3596C186.194 60.3142 186.904 60.2536 187.599 60.2083C187.629 60.299 187.629 60.4049 187.629 60.5109Z" fill="white"/>
<path fill-rule="evenodd" clip-rule="evenodd" d="M181.287 189.315C177.587 193.385 174.959 195.231 173.343 196.154C173.026 196.335 169.885 198.09 169.825 198V197.984C169.357 196.88 146.433 128.507 145.542 125.768C141.012 125.677 135.621 125.224 129.625 124.059C123.358 122.833 117.982 121.123 113.618 119.414C115.506 120.669 118.209 122.757 120.625 125.995C125.699 132.789 125.488 139.219 127.496 146.678C128.493 150.4 130.26 155.166 133.657 160.522C134.73 162.232 135.968 163.987 137.403 165.803C137.659 166.136 137.916 166.453 138.188 166.786C137.825 166.907 137.463 167.043 137.101 167.164C136.436 167.391 135.772 167.633 135.107 167.86C132.495 168.783 129.882 169.691 127.285 170.614C126.288 170.962 125.291 171.31 124.295 171.658C124.295 171.658 124.295 171.658 124.295 171.673C123.585 170.72 122.845 169.691 122.06 168.602C119.764 165.364 117.182 161.491 114.509 157.073C105.358 141.836 90.1357 116.463 97.943 106.039C102.383 100.108 112.788 100.985 129.61 102.407C134.503 102.816 138.641 103.482 140.483 103.799C149.816 105.403 157.351 107.763 162.637 109.685C162.637 109.685 166.789 120.594 168.269 127.856C169.719 134.967 170.172 141.322 170.187 146.466C173.359 149.371 175.035 152.155 175.926 153.956C179.731 161.612 177.557 167.543 179.49 180.524C180.079 184.428 180.834 187.545 181.287 189.315Z" fill="#FF6334"/>
<path fill-rule="evenodd" clip-rule="evenodd" d="M164.841 66.0646C164.69 67.6987 164.494 69.9379 164.298 72.0562C161.504 70.9214 158.62 70.1951 155.766 69.7564L156.113 67.3809C153.938 67.0027 152.096 66.0495 151.266 64.6424C149.921 62.3577 151.311 58.9686 152.851 56.7898L148.306 52.3567L155.131 54.3387C156.521 53.1889 158.288 52.16 160.115 51.812C160.251 52.508 160.764 53.3704 161.323 53.9C162.607 55.1558 164.313 54.9893 164.555 54.9742C163.92 55.6853 162.093 57.9246 162.244 60.996C162.304 62.6452 163.029 65.5653 164.841 66.0646Z" fill="#FF8F6D"/>
<path d="M168.632 54.0817C166.246 50.7379 161.066 49.8301 160.221 50.98C160.07 51.1918 160.039 51.4793 160.1 51.8121C160.236 52.5081 160.749 53.3705 161.308 53.9001C162.591 55.1559 164.298 54.9895 164.539 54.9743C163.905 55.6854 162.078 57.9247 162.229 60.9961C162.32 62.6453 163.029 65.5806 164.842 66.0647C164.857 66.0647 164.872 66.0647 164.872 66.0799C165.853 66.3219 166.774 65.7621 167.031 65.6108C169.855 63.8103 171.305 57.8339 168.632 54.0817Z" fill="url(#paint0_linear_492_423)"/>
<path d="M154.18 63.0538C152.474 63.0538 151.311 62.0401 151.296 62.025L151.99 61.2382L151.643 61.6316L151.99 61.2382C152.081 61.3139 154.24 63.1446 156.913 60.8297L157.608 61.6316C156.355 62.721 155.177 63.0538 154.18 63.0538Z" fill="black"/>
<path d="M156.536 56.109C156.928 56.109 157.246 55.7906 157.246 55.3979C157.246 55.0051 156.928 54.6868 156.536 54.6868C156.144 54.6868 155.826 55.0051 155.826 55.3979C155.826 55.7906 156.144 56.109 156.536 56.109Z" fill="black"/>
<path d="M158.142 52.1002L159.164 51.83L160.004 55.0192L158.982 55.2894L158.142 52.1002Z" fill="black"/>
<path fill-rule="evenodd" clip-rule="evenodd" d="M159.571 56.1848L164.766 58.9839L164.494 59.5134L159.435 56.79C159.028 57.8491 158.016 58.6207 156.808 58.6207C155.267 58.6207 154.014 57.3649 154.014 55.8217C154.014 54.2784 155.267 53.0226 156.808 53.0226C158.348 53.0226 159.601 54.2784 159.601 55.8217C159.601 55.9427 159.586 56.0637 159.571 56.1848L159.571 56.1848ZM154.602 55.8209C154.602 57.0313 155.584 58.0147 156.792 58.0147C158 58.0147 158.982 57.0313 158.982 55.8209C158.982 54.6104 158 53.627 156.792 53.627C155.584 53.627 154.602 54.6104 154.602 55.8209Z" fill="black"/>
<path fill-rule="evenodd" clip-rule="evenodd" d="M161.64 59.4225C164.237 58.0457 166.563 57.7128 167.469 58.5904C167.801 58.9081 167.847 59.2864 167.847 59.3923C167.983 60.9356 165.053 62.6755 162.38 62.842C161.851 62.8722 161.429 62.842 161.187 62.8117C161.353 61.6618 161.504 60.5422 161.64 59.4225Z" fill="#FF8F6D"/>
<path d="M144.53 170.992L143.866 171.718L142.914 172.747L141.706 174.033L140.755 175.062L140.71 175.108L140.408 175.44L139.411 176.515L138.777 177.196L138.445 177.528L137.267 178.724L136.859 179.147L121.441 194.656L121.169 194.928L120.64 195.458C120.64 195.458 120.64 195.458 120.625 195.458C120.565 195.427 120.504 195.382 120.444 195.352C120.399 195.321 120.368 195.306 120.323 195.276C120.278 195.246 120.217 195.2 120.172 195.17C120.127 195.14 120.066 195.095 120.021 195.064C119.976 195.034 119.93 194.989 119.885 194.943C119.84 194.913 119.795 194.868 119.764 194.837C119.764 194.837 119.764 194.837 119.749 194.822C119.704 194.777 119.659 194.747 119.613 194.701C119.568 194.656 119.523 194.61 119.492 194.565C119.462 194.52 119.417 194.489 119.387 194.444C119.357 194.414 119.326 194.368 119.296 194.338C119.266 194.308 119.236 194.277 119.221 194.232C119.16 194.156 119.1 194.081 119.055 194.005C118.888 193.763 118.737 193.506 118.632 193.249C118.466 192.84 118.345 192.416 118.33 191.978C118.315 191.675 118.345 191.357 118.42 191.04C118.602 190.434 118.783 189.829 118.964 189.224L119.357 187.923C119.583 187.181 119.81 186.44 120.036 185.699C120.066 185.608 120.097 185.517 120.112 185.426C121.501 180.842 122.89 176.257 124.28 171.673V171.658C125.276 171.31 126.273 170.962 127.27 170.614C129.882 169.706 132.495 168.783 135.092 167.86C135.757 167.633 136.421 167.391 137.085 167.164C137.448 167.043 137.81 166.907 138.173 166.786C138.188 166.786 138.203 166.801 138.218 166.816C138.233 166.831 138.263 166.847 138.294 166.877C138.369 166.922 138.46 166.983 138.58 167.058C138.596 167.073 138.626 167.089 138.641 167.104L138.656 167.119C138.671 167.134 138.671 167.134 138.686 167.134C138.701 167.134 138.716 167.149 138.716 167.164C138.747 167.179 138.762 167.195 138.792 167.21C138.807 167.21 138.807 167.225 138.822 167.225C138.852 167.255 138.898 167.27 138.928 167.3C138.958 167.331 139.003 167.346 139.033 167.376C139.049 167.376 139.064 167.391 139.079 167.406C139.109 167.421 139.124 167.437 139.154 167.452C139.184 167.482 139.23 167.497 139.26 167.527C139.26 167.527 139.275 167.527 139.275 167.543C139.32 167.573 139.366 167.603 139.396 167.633C139.487 167.694 139.577 167.754 139.668 167.815C139.94 167.996 140.257 168.208 140.574 168.42C140.921 168.647 141.284 168.889 141.646 169.131C141.676 169.161 141.721 169.177 141.752 169.207C141.827 169.267 141.918 169.313 141.993 169.373C142.008 169.388 142.024 169.388 142.039 169.404C142.175 169.494 142.31 169.585 142.446 169.676C142.718 169.857 142.99 170.039 143.262 170.221C143.428 170.326 143.594 170.448 143.76 170.553C143.836 170.614 143.926 170.659 144.002 170.72C144.017 170.735 144.032 170.75 144.062 170.765C144.138 170.826 144.228 170.871 144.304 170.932C144.41 170.917 144.47 170.962 144.53 170.992Z" fill="#4D00FF"/>
<path d="M144.53 170.992L143.866 171.719L142.914 172.747L141.706 174.033L140.755 175.062L140.71 175.108L140.408 175.441L139.411 176.515L138.777 177.196L138.444 177.529L137.267 178.724L136.859 179.147L121.44 194.656L121.169 194.928L120.64 195.458C120.64 195.458 120.64 195.458 120.625 195.458C120.565 195.428 120.504 195.382 120.444 195.352C120.398 195.322 120.368 195.306 120.323 195.276C120.278 195.246 120.217 195.201 120.172 195.17C120.127 195.14 120.066 195.095 120.021 195.064C119.976 195.034 119.93 194.989 119.885 194.943C119.84 194.913 119.794 194.868 119.764 194.837C119.764 194.837 119.764 194.837 119.749 194.822C119.704 194.777 119.658 194.747 119.613 194.701C119.568 194.656 119.523 194.61 119.492 194.565C119.462 194.52 119.417 194.489 119.387 194.444C119.356 194.414 119.326 194.368 119.296 194.338C119.266 194.308 119.236 194.278 119.221 194.232C119.16 194.157 119.1 194.081 119.054 194.005C118.888 193.763 118.737 193.506 118.632 193.249C118.466 192.84 118.345 192.417 118.33 191.978C118.737 192.053 119.175 192.129 119.613 192.159C123.147 192.371 125.427 188.528 133.733 180.086C134.473 179.344 135.062 178.739 135.424 178.391C134.971 177.181 134.458 175.456 134.307 173.337C134.171 171.461 134.337 169.858 134.548 168.662C134.548 168.662 134.548 168.662 134.548 168.647C135.001 168.435 135.454 168.223 135.907 167.997C136.27 167.83 136.617 167.649 136.98 167.482C137.372 167.24 137.78 167.013 138.173 166.771C138.188 166.786 138.203 166.786 138.218 166.801C138.233 166.816 138.263 166.832 138.293 166.862C138.369 166.907 138.46 166.968 138.58 167.043C138.595 167.058 138.626 167.074 138.641 167.089L138.656 167.104C138.671 167.119 138.701 167.134 138.731 167.149C138.762 167.164 138.777 167.18 138.807 167.195C138.822 167.195 138.822 167.21 138.837 167.21C138.867 167.24 138.913 167.255 138.943 167.285C138.973 167.316 139.018 167.331 139.048 167.361C139.064 167.376 139.079 167.376 139.094 167.391C139.124 167.406 139.139 167.422 139.169 167.437C139.184 167.452 139.215 167.467 139.23 167.482C139.245 167.497 139.275 167.512 139.29 167.528C139.335 167.558 139.381 167.588 139.411 167.618C139.501 167.679 139.592 167.739 139.683 167.8C139.955 167.981 140.272 168.193 140.589 168.405C140.936 168.632 141.299 168.874 141.661 169.116C141.691 169.146 141.736 169.162 141.767 169.192C141.842 169.252 141.933 169.298 142.008 169.358C142.023 169.373 142.039 169.373 142.054 169.389C142.19 169.479 142.325 169.57 142.461 169.661C142.733 169.842 143.005 170.024 143.277 170.206C143.443 170.311 143.609 170.432 143.775 170.538C143.851 170.599 143.941 170.644 144.017 170.705C144.032 170.72 144.047 170.735 144.077 170.75C144.153 170.811 144.243 170.856 144.319 170.917C144.409 170.917 144.47 170.962 144.53 170.992Z" fill="white"/>
<path d="M144.53 170.992L143.866 171.719L142.915 172.747L141.707 174.033L140.755 175.062L140.71 175.108L140.408 175.441L139.411 176.515L138.777 177.196L138.445 177.529L137.267 178.724L136.859 179.147C135.636 175.97 135.636 171.764 137.025 167.497V167.482C137.055 167.376 137.101 167.27 137.131 167.149C137.493 167.028 137.856 166.892 138.218 166.771C138.233 166.771 138.248 166.786 138.263 166.801C138.279 166.816 138.309 166.832 138.339 166.862C138.414 166.907 138.505 166.968 138.626 167.043C138.641 167.058 138.671 167.074 138.686 167.089L138.701 167.104C138.717 167.119 138.717 167.119 138.732 167.119C138.747 167.119 138.762 167.134 138.762 167.149C138.792 167.164 138.807 167.18 138.837 167.195C138.852 167.195 138.852 167.21 138.868 167.21C138.898 167.24 138.943 167.255 138.973 167.285C139.003 167.316 139.049 167.331 139.079 167.361C139.094 167.361 139.109 167.376 139.124 167.391C139.154 167.406 139.17 167.422 139.2 167.437C139.215 167.452 139.245 167.467 139.26 167.482C139.275 167.497 139.29 167.497 139.305 167.512C139.305 167.512 139.321 167.512 139.321 167.528C139.366 167.558 139.411 167.588 139.441 167.618C139.532 167.679 139.623 167.739 139.713 167.8C139.985 167.981 140.302 168.193 140.619 168.405C140.967 168.632 141.329 168.874 141.691 169.116C141.722 169.146 141.767 169.162 141.797 169.192C141.873 169.252 141.963 169.298 142.039 169.358C142.054 169.373 142.069 169.373 142.084 169.389C142.22 169.479 142.356 169.57 142.492 169.661C142.764 169.842 143.035 170.024 143.307 170.206C143.473 170.311 143.639 170.432 143.806 170.538C143.881 170.599 143.972 170.644 144.047 170.705C144.062 170.72 144.077 170.735 144.108 170.75C144.183 170.811 144.274 170.856 144.349 170.917C144.41 170.917 144.47 170.962 144.53 170.992Z" fill="#B600A0"/>
<path fill-rule="evenodd" clip-rule="evenodd" d="M147.384 172.914C147.233 173.065 147.067 173.216 146.901 173.368C146.554 173.701 146.222 174.033 145.874 174.366C145.451 174.79 145.013 175.198 144.591 175.607C144.243 175.94 143.911 176.273 143.564 176.606C143.08 177.075 142.597 177.544 142.114 178.013C141.767 178.346 141.434 178.678 141.087 179.011C139.32 180.706 137.569 182.416 135.802 184.11C133.491 186.334 130.984 188.392 128.825 190.767C128.734 190.873 128.644 190.979 128.538 191.085C128.538 191.085 124.899 195.201 122.679 195.639C121.607 195.851 120.867 195.564 120.655 195.458C120.61 195.443 120.595 195.427 120.595 195.427C120.459 195.367 120.278 195.261 120.066 195.11C119.991 195.049 119.734 194.868 119.447 194.55C119.296 194.399 119.145 194.202 119.009 193.975C118.888 193.793 118.752 193.551 118.632 193.234C119.205 193.294 119.87 193.294 120.625 193.188C124.536 192.613 126.409 189.345 131.906 183.792C132.993 182.703 134.654 181.069 136.829 179.163C137.146 178.512 137.463 177.861 137.78 177.211L138.369 175.985C138.656 175.41 138.928 174.835 139.215 174.26C139.411 173.852 139.607 173.443 139.803 173.035C140.06 172.52 140.302 172.006 140.543 171.492C140.74 171.083 140.936 170.675 141.132 170.266C141.314 169.888 141.495 169.51 141.691 169.131C142.038 169.101 144.817 168.95 146.448 170.977C147.007 171.643 147.264 172.369 147.384 172.914Z" fill="#4ABA6B"/>
<path d="M146.916 173.368C146.569 173.701 146.237 174.033 145.889 174.366L142.899 172.747L140.543 171.476C140.74 171.068 140.936 170.659 141.132 170.251L143.851 171.718L146.916 173.368Z" fill="#FFE323"/>
<path d="M144.606 175.607C144.259 175.94 143.926 176.273 143.579 176.605L140.74 175.077L139.2 174.245C139.396 173.837 139.592 173.428 139.789 173.02L141.676 174.049L144.606 175.607Z" fill="#FFE323"/>
<path d="M142.129 178.013C141.782 178.345 141.45 178.678 141.102 179.011L138.414 177.559L137.765 177.211L138.354 175.985L139.381 176.545L142.129 178.013Z" fill="#FFE323"/>
<path d="M130.546 179.163C131.672 179.163 132.585 178.248 132.585 177.12C132.585 175.992 131.672 175.078 130.546 175.078C129.421 175.078 128.508 175.992 128.508 177.12C128.508 178.248 129.421 179.163 130.546 179.163Z" fill="#F73200"/>
<path d="M128.84 190.767C128.75 190.873 128.659 190.979 128.553 191.085C128.553 191.085 124.914 195.2 122.694 195.639C121.41 195.896 120.595 195.427 120.595 195.427C120.459 195.367 120.278 195.261 120.066 195.11C119.991 195.049 119.734 194.868 119.447 194.55C119.885 194.52 120.353 194.565 120.791 194.731C121.35 194.958 121.41 195.185 121.818 195.261C123.026 195.473 123.993 193.718 125.397 192.492C126.152 191.857 127.224 191.176 128.84 190.767Z" fill="#F73200"/>
<path d="M138.323 166.862C137.87 167.074 137.432 167.285 136.994 167.497C136.179 167.891 135.378 168.269 134.563 168.647C134.487 168.692 134.397 168.723 134.321 168.768C132.358 169.706 130.35 170.644 128.356 171.582C127.239 174.397 126.272 177.271 125.517 180.101C125.306 180.887 125.125 181.629 124.943 182.34C124.037 185.911 123.388 188.498 121.259 189.224C120.911 189.345 120.549 189.391 120.172 189.391C119.794 189.391 119.401 189.33 118.979 189.209L119.371 187.908C119.915 188.059 120.398 188.059 120.821 187.923C122.255 187.439 122.829 185.169 123.615 182.007C123.796 181.281 123.977 180.539 124.188 179.753C124.989 176.787 126.001 173.776 127.178 170.826L127.269 170.599V170.584L127.511 170.463C129.595 169.494 131.679 168.496 133.717 167.527C134.941 166.952 136.164 166.362 137.387 165.772C137.644 166.105 137.9 166.423 138.172 166.756C138.187 166.756 138.202 166.771 138.217 166.786C138.263 166.831 138.293 166.847 138.323 166.862Z" fill="#FFE323"/>
<path d="M189.396 192.78L188.898 193.627L188.203 194.853L187.327 196.381L186.617 197.606L186.587 197.667L186.361 198.045L185.621 199.316L185.153 200.133L184.896 200.541L184.005 201.964L183.703 202.463L172.196 221.028L171.999 221.345L171.607 221.981C171.607 221.981 171.607 221.981 171.592 221.981C171.531 221.966 171.456 221.936 171.395 221.92C171.35 221.905 171.305 221.89 171.259 221.875C171.199 221.86 171.139 221.83 171.078 221.799C171.018 221.769 170.973 221.754 170.912 221.724C170.852 221.693 170.806 221.678 170.746 221.648C170.701 221.618 170.64 221.588 170.595 221.572C170.595 221.572 170.58 221.572 170.58 221.557C170.519 221.527 170.474 221.497 170.414 221.466C170.368 221.436 170.308 221.406 170.263 221.361C170.217 221.33 170.172 221.3 170.127 221.27C170.082 221.24 170.051 221.209 170.021 221.194C169.991 221.164 169.961 221.149 169.915 221.118C169.84 221.058 169.764 220.997 169.704 220.937C169.493 220.74 169.281 220.528 169.115 220.286C168.858 219.938 168.662 219.545 168.541 219.121C168.466 218.819 168.42 218.516 168.42 218.183C168.466 217.548 168.511 216.927 168.541 216.292L168.632 214.93C168.677 214.159 168.738 213.387 168.783 212.615C168.783 212.525 168.798 212.434 168.798 212.343C169.13 207.562 169.447 202.781 169.764 198V197.984C170.655 197.425 171.546 196.85 172.437 196.29C174.778 194.807 177.119 193.324 179.444 191.857C180.033 191.479 180.637 191.1 181.226 190.722C181.558 190.51 181.876 190.314 182.208 190.102C182.223 190.102 182.238 190.117 182.253 190.117C182.283 190.132 182.314 190.132 182.344 190.147C182.419 190.177 182.525 190.223 182.661 190.268C182.676 190.283 182.706 190.283 182.736 190.298C182.751 190.298 182.751 190.298 182.767 190.314C182.782 190.314 182.797 190.329 182.797 190.329C182.812 190.329 182.827 190.344 182.842 190.344C182.872 190.359 182.887 190.359 182.918 190.374C182.933 190.374 182.933 190.374 182.948 190.389C182.978 190.404 183.023 190.419 183.069 190.435C183.114 190.45 183.144 190.465 183.189 190.48C183.205 190.48 183.22 190.495 183.235 190.495C183.265 190.51 183.295 190.51 183.325 190.525C183.356 190.54 183.401 190.556 183.446 190.571H183.461C183.507 190.586 183.552 190.601 183.612 190.631C183.718 190.662 183.809 190.707 183.914 190.752C184.231 190.873 184.564 190.994 184.941 191.131C185.319 191.282 185.726 191.433 186.149 191.584C186.195 191.6 186.225 191.615 186.27 191.63C186.361 191.66 186.451 191.705 186.542 191.736C186.557 191.736 186.572 191.751 186.587 191.751C186.738 191.811 186.889 191.872 187.04 191.917C187.342 192.038 187.644 192.144 187.946 192.265C188.128 192.341 188.324 192.401 188.505 192.477C188.596 192.507 188.686 192.553 188.777 192.583C188.792 192.598 188.822 192.598 188.837 192.613C188.928 192.644 189.018 192.689 189.109 192.719C189.26 192.734 189.336 192.765 189.396 192.78Z" fill="#4D00FF"/>
<path d="M189.396 192.78L188.897 193.627L188.203 194.852L187.327 196.381L186.617 197.606L186.587 197.667L186.36 198.045L185.62 199.316L185.152 200.133L184.896 200.541L184.005 201.964L183.703 202.463L172.196 221.028L171.999 221.345L171.607 221.981C171.607 221.981 171.607 221.981 171.591 221.981C171.531 221.966 171.456 221.935 171.395 221.92C171.35 221.905 171.305 221.89 171.259 221.875C171.199 221.86 171.138 221.829 171.078 221.799C171.018 221.769 170.972 221.754 170.912 221.724C170.852 221.693 170.806 221.678 170.746 221.648C170.7 221.618 170.64 221.587 170.595 221.572C170.595 221.572 170.58 221.572 170.58 221.557C170.519 221.527 170.474 221.497 170.414 221.466C170.368 221.436 170.308 221.406 170.263 221.36C170.217 221.33 170.172 221.3 170.127 221.27C170.081 221.239 170.051 221.209 170.021 221.194C169.991 221.164 169.961 221.149 169.915 221.118C169.84 221.058 169.764 220.997 169.704 220.937C169.492 220.74 169.281 220.528 169.115 220.286C168.858 219.938 168.662 219.545 168.541 219.121C168.949 219.091 169.402 219.091 169.84 219.015C173.328 218.425 174.687 214.174 180.894 204.082C181.437 203.189 181.89 202.478 182.162 202.054C181.437 200.98 180.562 199.407 179.927 197.379C179.369 195.579 179.172 193.975 179.127 192.78C179.127 192.78 179.127 192.78 179.127 192.764C179.52 192.462 179.912 192.144 180.305 191.826C180.622 191.584 180.924 191.327 181.226 191.085C181.558 190.767 181.89 190.45 182.238 190.117C182.253 190.117 182.268 190.132 182.283 190.132C182.313 190.147 182.344 190.147 182.374 190.162C182.449 190.192 182.555 190.238 182.691 190.283C182.706 190.298 182.736 190.298 182.766 190.313C182.781 190.313 182.781 190.313 182.797 190.329C182.827 190.344 182.842 190.344 182.872 190.359C182.902 190.374 182.917 190.374 182.948 190.389C182.963 190.389 182.963 190.389 182.978 190.404C183.008 190.419 183.053 190.434 183.099 190.45C183.144 190.465 183.174 190.48 183.219 190.495C183.235 190.495 183.25 190.51 183.265 190.51C183.295 190.525 183.325 190.525 183.355 190.54C183.37 190.555 183.401 190.555 183.416 190.571C183.446 190.586 183.461 190.586 183.491 190.601C183.537 190.616 183.582 190.631 183.642 190.661C183.748 190.692 183.839 190.737 183.944 190.782C184.261 190.903 184.594 191.025 184.971 191.161C185.349 191.312 185.756 191.463 186.179 191.615C186.225 191.63 186.255 191.645 186.3 191.66C186.391 191.69 186.481 191.736 186.572 191.766C186.587 191.766 186.602 191.781 186.617 191.781C186.768 191.842 186.919 191.902 187.07 191.947C187.372 192.068 187.674 192.174 187.976 192.295C188.157 192.371 188.354 192.432 188.535 192.507C188.626 192.538 188.716 192.583 188.807 192.613C188.822 192.628 188.852 192.628 188.867 192.643C188.958 192.674 189.048 192.719 189.139 192.749C189.26 192.734 189.335 192.764 189.396 192.78Z" fill="white"/>
<path d="M189.396 192.78L188.898 193.627L188.203 194.853L187.327 196.381L186.617 197.606L186.587 197.667L186.361 198.045L185.621 199.316L185.153 200.133L184.896 200.541L184.005 201.964L183.703 202.463C181.8 199.634 180.849 195.549 181.241 191.07V191.055C181.256 190.934 181.256 190.828 181.272 190.707C181.604 190.495 181.921 190.298 182.253 190.087C182.268 190.087 182.283 190.102 182.298 190.102C182.329 190.117 182.359 190.117 182.389 190.132C182.465 190.162 182.57 190.208 182.706 190.253C182.721 190.268 182.751 190.268 182.782 190.283C182.797 190.283 182.797 190.283 182.812 190.298C182.827 190.298 182.842 190.314 182.842 190.314C182.857 190.314 182.872 190.329 182.887 190.329C182.918 190.344 182.933 190.344 182.963 190.359C182.978 190.359 182.978 190.359 182.993 190.374C183.023 190.389 183.069 190.404 183.114 190.419C183.159 190.435 183.189 190.45 183.235 190.465C183.25 190.465 183.265 190.48 183.28 190.48C183.31 190.495 183.34 190.495 183.371 190.51C183.386 190.525 183.416 190.525 183.431 190.54C183.446 190.54 183.461 190.556 183.476 190.556H183.491C183.537 190.571 183.582 190.586 183.642 190.616C183.748 190.646 183.839 190.692 183.944 190.737C184.262 190.858 184.594 190.979 184.971 191.115C185.349 191.267 185.757 191.418 186.179 191.569C186.225 191.584 186.255 191.6 186.3 191.615C186.391 191.645 186.481 191.69 186.572 191.721C186.587 191.721 186.602 191.736 186.617 191.736C186.768 191.796 186.919 191.857 187.07 191.902C187.372 192.023 187.674 192.129 187.976 192.25C188.158 192.326 188.354 192.386 188.535 192.462C188.626 192.492 188.716 192.538 188.807 192.568C188.822 192.583 188.852 192.583 188.867 192.598C188.958 192.628 189.049 192.674 189.139 192.704C189.26 192.734 189.336 192.765 189.396 192.78Z" fill="#B600A0"/>
<path fill-rule="evenodd" clip-rule="evenodd" d="M192.613 194.005C192.492 194.187 192.371 194.383 192.25 194.565C191.994 194.974 191.737 195.367 191.48 195.76C191.163 196.26 190.831 196.759 190.514 197.273C190.257 197.667 190 198.075 189.743 198.469C189.381 199.028 189.019 199.588 188.656 200.163C188.399 200.557 188.143 200.965 187.886 201.358C186.557 203.416 185.213 205.474 183.884 207.516C182.132 210.21 180.154 212.767 178.584 215.581C178.508 215.702 178.448 215.823 178.372 215.944C178.372 215.944 175.745 220.77 173.676 221.693C172.679 222.147 171.894 222.026 171.652 221.981C171.607 221.966 171.577 221.966 171.577 221.966C171.426 221.935 171.229 221.875 171.003 221.784C170.912 221.754 170.625 221.633 170.278 221.376C170.097 221.255 169.916 221.103 169.719 220.922C169.568 220.77 169.372 220.574 169.191 220.286C169.765 220.211 170.414 220.059 171.109 219.787C174.793 218.335 175.896 214.734 179.988 208.091C180.804 206.775 182.057 204.808 183.748 202.463C183.914 201.752 184.065 201.056 184.231 200.345L184.534 199.013C184.685 198.393 184.82 197.757 184.956 197.137C185.062 196.698 185.153 196.244 185.258 195.806C185.379 195.246 185.515 194.701 185.636 194.141C185.742 193.703 185.847 193.264 185.938 192.81C186.029 192.401 186.119 191.993 186.225 191.569C186.557 191.463 189.23 190.692 191.284 192.311C191.963 192.855 192.371 193.506 192.613 194.005Z" fill="#4ABA6B"/>
<path d="M192.25 194.55C191.993 194.959 191.737 195.352 191.48 195.745L188.218 194.853L185.651 194.142C185.757 193.703 185.862 193.264 185.953 192.81L188.928 193.627L192.25 194.55Z" fill="#FFE323"/>
<path d="M190.498 197.258C190.242 197.652 189.985 198.06 189.728 198.454L186.633 197.591L184.956 197.122C185.062 196.683 185.153 196.229 185.258 195.791L187.342 196.366L190.498 197.258Z" fill="#FFE323"/>
<path d="M188.626 200.148C188.369 200.541 188.112 200.95 187.856 201.343L184.911 200.526L184.201 200.33L184.503 198.998L185.621 199.301L188.626 200.148Z" fill="#FFE323"/>
<path d="M177.149 203.931C178.275 203.931 179.187 203.016 179.187 201.888C179.187 200.76 178.275 199.846 177.149 199.846C176.023 199.846 175.11 200.76 175.11 201.888C175.11 203.016 176.023 203.931 177.149 203.931Z" fill="#F73200"/>
<path d="M178.538 215.581C178.463 215.702 178.402 215.823 178.327 215.944C178.327 215.944 175.699 220.771 173.63 221.694C172.437 222.223 171.546 221.951 171.546 221.951C171.395 221.92 171.199 221.86 170.972 221.769C170.882 221.739 170.595 221.618 170.248 221.361C170.67 221.224 171.123 221.164 171.607 221.24C172.211 221.33 172.316 221.542 172.724 221.527C173.947 221.467 174.491 219.53 175.593 218.032C176.167 217.245 177.058 216.337 178.538 215.581Z" fill="#F73200"/>
<path d="M182.419 190.147C182.026 190.45 181.648 190.767 181.256 191.07C180.546 191.63 179.851 192.19 179.142 192.749C179.066 192.81 179.006 192.855 178.93 192.916C177.224 194.262 175.487 195.639 173.751 197.001C173.282 199.997 172.995 203.008 172.89 205.943C172.86 206.76 172.844 207.516 172.829 208.243C172.754 211.934 172.709 214.597 170.791 215.777C170.474 215.974 170.141 216.11 169.779 216.186C169.417 216.277 169.009 216.307 168.586 216.277L168.677 214.915C169.235 214.945 169.703 214.839 170.081 214.597C171.365 213.811 171.41 211.45 171.485 208.197C171.5 207.456 171.516 206.684 171.546 205.867C171.667 202.796 171.969 199.634 172.467 196.502L172.512 196.26V196.244L172.724 196.078C174.536 194.656 176.348 193.234 178.115 191.826C179.172 190.979 180.229 190.147 181.301 189.3C181.618 189.557 181.951 189.814 182.298 190.086C182.313 190.086 182.328 190.102 182.343 190.102C182.358 190.132 182.388 190.147 182.419 190.147Z" fill="#FFE323"/>
<path fill-rule="evenodd" clip-rule="evenodd" d="M209.783 76.0355C207.185 75.0974 204.603 74.1745 202.006 73.2364C201.915 73.2062 201.809 73.1608 201.719 73.1305C200.344 75.8691 198.744 78.7741 196.886 81.8001C196.826 81.8909 196.765 81.9968 196.705 82.0876C196.101 83.0559 195.497 84.0091 194.878 84.9169C192.99 87.7614 191.087 90.3184 189.26 92.603C187.372 90.0158 184.609 86.6266 180.819 83.1164C175.458 78.1537 169.931 74.7041 166.412 72.9944C165.702 72.6464 164.992 72.3438 164.283 72.0412C161.489 70.9064 158.605 70.1801 155.751 69.7414C152.609 69.2572 149.484 69.121 146.539 69.2118C144.998 69.2572 143.519 69.3631 142.084 69.5144C135.273 70.2255 129.927 71.8899 128.161 72.4497C127.995 68.5763 127.949 64.4609 128.07 60.1035C128.1 59.0595 128.13 58.0458 128.176 57.032C128.236 55.4888 128.327 53.9909 128.432 52.5081C128.568 50.5109 128.734 48.5894 128.931 46.7133C128.825 46.683 128.719 46.6528 128.614 46.6225C125.367 45.6844 122.12 44.7312 118.858 43.7932C118.722 43.7478 118.586 43.7175 118.466 43.6721C117.922 47.4093 117.469 50.9043 117.061 54.0968C116.472 58.8174 116.17 61.1777 116.049 62.7664C115.325 71.9201 114.751 79.0918 118.919 83.0256C121.093 85.0833 123.706 85.4465 128.553 86.1273C134.443 86.9595 139.351 86.2332 142.461 85.5221C141.842 88.0489 141.284 90.9538 140.906 94.1614C140.649 96.3856 140.513 98.4887 140.468 100.425C140.438 101.59 140.438 102.695 140.468 103.754C141.148 103.875 141.812 103.996 142.461 104.117C150.661 105.66 157.472 107.779 162.622 109.64C165.31 104.919 167.998 100.213 170.686 95.4929C172.392 97.3085 175.095 99.7899 178.871 101.984C180.003 102.634 181.09 103.27 182.163 103.83C183.567 104.571 184.926 105.206 186.285 105.615C187.841 106.084 189.381 106.266 190.967 106.008C196.841 105.07 200.254 98.6551 204.648 90.394C207.714 84.6294 209.45 79.5608 210.447 76.2322C210.236 76.1868 210.009 76.1112 209.783 76.0355Z" fill="#5F2CE6"/>
<path d="M144.787 72.0864C143.549 72.3285 142.356 71.5115 142.114 70.2708C142.069 70.0136 142.054 69.7715 142.099 69.5143C143.518 69.363 145.013 69.2571 146.554 69.2117C146.569 69.2722 146.584 69.3327 146.599 69.3932C146.826 70.649 146.025 71.8443 144.787 72.0864Z" fill="#00B657"/>
<path d="M119.87 77.0038C121.129 77.0038 122.15 75.9809 122.15 74.7191C122.15 73.4573 121.129 72.4344 119.87 72.4344C118.611 72.4344 117.59 73.4573 117.59 74.7191C117.59 75.9809 118.611 77.0038 119.87 77.0038Z" fill="#FFE323"/>
<path d="M128.447 52.5384C128.342 54.0061 128.266 55.5191 128.191 57.0623C127.058 57.1531 126.001 56.3664 125.79 55.2165C125.548 53.9758 126.363 52.7805 127.587 52.5384C127.889 52.4779 128.176 52.4779 128.447 52.5384Z" fill="#00B657"/>
<path d="M156.792 94.5699C158.052 94.5699 159.073 93.547 159.073 92.2853C159.073 91.0235 158.052 90.0006 156.792 90.0006C155.533 90.0006 154.512 91.0235 154.512 92.2853C154.512 93.547 155.533 94.5699 156.792 94.5699Z" fill="#00B657"/>
<path d="M170.051 85.3557C171.31 85.3557 172.331 84.3328 172.331 83.071C172.331 81.8093 171.31 80.7864 170.051 80.7864C168.792 80.7864 167.771 81.8093 167.771 83.071C167.771 84.3328 168.792 85.3557 170.051 85.3557Z" fill="#FFE323"/>
<path d="M186.3 105.66C184.941 105.252 183.582 104.631 182.178 103.875C182.389 103.043 183.054 102.347 183.96 102.18C185.198 101.938 186.391 102.755 186.633 103.996C186.753 104.586 186.617 105.176 186.3 105.66Z" fill="#00B657"/>
<path d="M142.476 104.147C141.827 104.026 141.147 103.905 140.483 103.784C140.453 102.725 140.453 101.621 140.483 100.456C141.631 100.35 142.703 101.136 142.929 102.301C143.05 102.982 142.869 103.648 142.476 104.147Z" fill="#00B657"/>
<path d="M197.445 86.324C196.358 86.5358 195.285 85.9306 194.893 84.9169C195.497 84.0091 196.116 83.0559 196.72 82.0875C196.78 81.9968 196.841 81.8909 196.901 81.8001C198.019 81.7396 199.046 82.5112 199.257 83.646C199.484 84.8866 198.668 86.0819 197.445 86.324Z" fill="#FFE323"/>
<path fill-rule="evenodd" clip-rule="evenodd" d="M128.629 46.6528C125.382 45.7147 122.135 44.7615 118.873 43.8235C117.665 41.9776 117.288 39.7989 117.771 37.8168C117.454 37.6655 117.393 37.6504 117.393 37.6504C113.497 36.6518 110.296 38.5128 109.48 37.1208C109.45 37.0754 109.284 36.7728 109.329 36.44C108.755 36.5459 108.302 36.5005 108 36.1374C107.97 36.1071 107.698 35.7742 107.729 35.3657C107.789 34.7605 108.529 34.3217 109.45 33.9737C108.453 34.0645 107.744 34.0343 107.411 33.4745C107.381 33.4291 107.17 33.0508 107.291 32.6726C107.578 31.7042 109.616 31.5378 111.232 31.4168C112.561 31.3108 114.147 31.2049 116.14 31.7194C117.695 32.1127 118.828 32.7179 119.568 33.1265C119.945 33.3383 120.308 33.5501 120.625 33.7468C120.293 32.612 119.961 31.4773 119.628 30.3274C118.043 30.3879 116.668 30.403 115.566 30.403C113.935 30.403 112.878 30.3425 112.531 29.6919C112.501 29.6163 112.35 29.3591 112.425 29.0867C112.576 28.5723 113.392 28.2243 117.197 28.0125C119.523 27.8914 120.67 27.8309 120.957 27.9822C121.984 28.5269 122.196 29.5255 123.63 34.004C123.902 34.4277 127.073 41.2816 128.629 46.6528Z" fill="#FF8F6D"/>
<path fill-rule="evenodd" clip-rule="evenodd" d="M207.895 64.9905L207.698 64.9602L204.98 64.5214L204.331 64.4155L202.64 64.1432L200.299 63.7649H200.254L197.43 63.311C197.415 63.3262 197.415 63.3564 197.399 63.3716C197.384 63.3413 197.369 63.311 197.354 63.2959C196.916 62.6453 196.508 62.1914 195.95 62.1763C195.466 62.1763 194.953 62.4637 194.727 62.8723C194.545 63.19 194.273 64.007 196.01 66.5791C195.466 68.0316 195.285 69.1059 195.814 69.6203C195.859 69.6506 196.071 69.8624 196.373 69.8926C196.826 69.938 197.309 69.59 197.762 69.0151C197.762 69.0302 197.747 69.0454 197.747 69.0605C197.505 69.8019 197.46 70.3768 197.762 70.7399C197.943 70.9518 198.215 71.0274 198.306 71.0425C198.547 71.0879 198.804 70.982 199.076 70.7702C199.151 70.7097 199.242 70.634 199.317 70.5584C200.087 71.33 200.963 72.1319 201.975 72.9489C201.99 73.0548 202.005 73.1456 202.02 73.2515C204.618 74.1896 207.2 75.1125 209.798 76.0506C208.529 69.1967 207.91 65.2174 207.895 64.9905Z" fill="#FF8F6D"/>
<path fill-rule="evenodd" clip-rule="evenodd" d="M197.415 61.2836C197.837 61.2231 198.245 61.1474 198.608 61.0718C198.532 61.1777 198.457 61.2987 198.366 61.4349L201.915 62.0098L204.195 62.3729L204.255 62.3881L204.346 62.4032L206.49 62.7512L207.608 62.9328C207.351 61.6013 207.004 60.8145 206.279 60.2396C205.977 59.9975 205.267 59.7252 203.848 59.1805C202.036 58.4845 201.129 58.1365 200.178 58.1062C199.332 58.076 199.574 58.2575 196.962 58.7266C194.983 59.0746 194.032 59.1048 193.76 59.7554C193.624 60.0883 193.715 60.4817 193.851 60.7238C194.304 61.5105 195.92 61.5105 197.415 61.2836Z" fill="#FF8F6D"/>
<path d="M118.526 34.5789C117.242 33.9737 115.868 33.6106 114.448 33.5198C112.802 33.4139 111.126 33.6711 109.571 34.2763L109.344 33.7165C110.975 33.081 112.742 32.8087 114.479 32.9146C115.974 33.0205 117.408 33.3837 118.767 34.0342L118.526 34.5789Z" fill="black"/>
<path d="M109.541 36.667L109.118 36.2282C109.239 36.1071 112.108 33.4594 118.224 35.5776L118.028 36.1525C112.259 34.1554 109.571 36.6518 109.541 36.667Z" fill="black"/>
<path d="M202.126 67.5475C200.646 66.7304 199.333 65.7016 198.23 64.4609C197.687 63.8406 197.188 63.1748 196.75 62.4637L197.264 62.146C197.687 62.8269 198.155 63.4623 198.683 64.0524C199.74 65.2477 200.994 66.2463 202.428 67.0179L202.126 67.5475Z" fill="black"/>
<defs>
<linearGradient id="paint0_linear_492_423" x1="160.063" y1="66.1424" x2="170.046" y2="66.1424" gradientUnits="userSpaceOnUse">
<stop offset="0.5605"/>
<stop offset="1" stop-color="#1244EE"/>
</linearGradient>
</defs>
</svg>
